<?xml version="1.0" encoding="UTF-8" standalone="no"?>
<svg
   xmlns="http://www.w3.org/2000/svg"
   version="1.1"
   id="svg6854"
   viewBox="0 0 449.74943 625.73735"
   height="50px"
   >
  <g
     transform="translate(256.26302,-220.55074)"
     id="layer1">
    <path
       id="path7413"
       d="m -237.81085,845.32152 c -0.35375,-0.57237 -1.55479,-0.75134 -2.66898,-0.39771 -1.1157,0.35411 -3.67726,-0.10174 -5.70181,-1.01468 -3.13633,-1.41429 -3.91532,-2.4516 -5.30602,-7.06557 -1.79807,-5.96547 -1.45634,-9.14487 1.05458,-9.8118 1.52316,-0.40457 1.52349,-0.4463 0.004,-0.55356 -3.43335,-0.2424 -3.24971,-5.30027 0.26066,-7.17896 2.24754,-1.20285 2.67625,-6.17892 0.45904,-5.3281 -2.03727,0.78178 -4.08617,-3.29013 -2.57297,-5.11342 0.62837,-0.75715 1.7846,-1.13024 2.56939,-0.82909 1.0561,0.40528 1.42685,-0.30002 1.42685,-2.71443 0,-3.17976 -0.0496,-3.21713 -1.96587,-1.48288 -1.94596,1.76107 -1.96283,1.6512 -1.66472,-10.84696 0.16563,-6.94433 0.60027,-12.92518 0.96587,-13.29077 0.3656,-0.3656 0.66472,-0.13972 0.66472,0.50194 0,0.64167 0.45,1.16667 1,1.16667 0.55,0 1,-0.675 1,-1.5 0,-0.83333 -0.88889,-1.5 -2,-1.5 -1.46667,0 -2,-0.66667 -2,-2.5 0,-1.70845 0.55408,-2.50485 1.75,-2.51531 1.07965,-0.009 1.32852,-0.29674 0.6497,-0.75 -3.69744,-2.46885 -4.14261,-10.23976 -0.72958,-12.73543 1.29798,-0.9491 1.66321,-2.88251 1.66321,-8.80443 0,-4.59834 -0.49224,-8.18138 -1.24928,-9.09356 -0.77886,-0.93846 -0.96059,-2.37062 -0.48261,-3.80328 1.15667,-3.46693 0.68622,-55.2021 -0.50559,-55.59937 -0.65466,-0.21822 -0.66161,-1.21055 -0.0203,-2.89734 0.53646,-1.41099 0.73459,-3.32409 0.4403,-4.25133 -1.12358,-3.54008 -1.39624,-13.48915 -0.40249,-14.68654 0.69377,-0.83595 0.82812,-11.39522 0.40783,-32.055 -0.62928,-30.93327 -0.84653,-52.36148 -0.60636,-59.80841 0.071,-2.2 -0.064,-7.6 -0.29978,-12 -0.75391,-14.0657 -0.81131,-15.85062 -0.77181,-24 0.0525,-10.82471 -0.32079,-14.37755 -1.65016,-15.70692 -0.83132,-0.83131 -0.7307,-1.4107 0.38691,-2.22791 1.19432,-0.87331 1.49972,-3.40227 1.45938,-12.0848 -0.0281,-6.0392 -0.45912,-12.70388 -0.95793,-14.81039 -0.4988,-2.10651 -0.58858,-6.38151 -0.19951,-9.5 0.56999,-4.56853 0.64838,-24.51254 0.18413,-46.84855 -0.0363,-1.74822 -0.74106,-3.85357 -1.56606,-4.67857 -1.94976,-1.94975 -1.92345,-5.26639 0.0478,-6.02281 1.17215,-0.4498 1.39079,-1.43066 0.90093,-4.04181 -0.35575,-1.89634 -0.15166,-4.94824 0.45354,-6.78202 0.78254,-2.37111 0.81056,-6.65027 0.097,-14.81518 -0.55185,-6.31457 -0.96391,-12.38104 -0.9157,-13.48104 0.38552,-8.79531 0.0976,-12.93961 -0.92242,-13.27963 -1.4184,-0.4728 -1.55486,-7.85898 -0.16111,-8.72037 1.36394,-0.84296 1.26335,-4.83665 -0.15762,-6.25762 -0.87682,-0.87682 -0.85594,-1.52111 0.0861,-2.65619 0.68404,-0.82422 1.00702,-1.88156 0.71772,-2.34965 -0.28929,-0.46809 -0.15489,-3.5253 0.29867,-6.7938 0.49472,-3.56509 0.44703,-6.41232 -0.1192,-7.11641 -0.59625,-0.74143 -0.54167,-2.66725 0.1482,-5.22924 1.17143,-4.35038 0.74958,-91.79089 -0.46148,-95.65448 -0.40814,-1.30204 0.0219,-2.85163 1.17136,-4.22075 2.12935,-2.5363 -0.83894,-2.38731 45.63996,-2.2909 33.51938,0.0695 38.6763,-0.21641 38.6763,-2.1444 0,-0.61122 1.64354,-0.73684 4.25,-0.32483 7.7158,1.21964 128.81297,0.58993 183.25,-0.95291 9.35,-0.265 40.56762,-0.66301 69.37249,-0.88449 28.80486,-0.22147 52.65486,-0.79004 53,-1.2635 0.94165,-1.29177 10.09537,-1.63239 11.54466,-0.42959 0.7751,0.64328 6.76591,0.9741 15.52029,0.85707 12.44731,-0.1664 14.37752,0.0231 15.19972,1.49231 0.518,0.9256 1.20203,6.75362 1.52008,12.95114 0.67496,13.15248 0.64973,11.78032 0.42778,23.26824 -0.0956,4.95 0.13197,14.175 0.50578,20.5 0.69486,11.75732 0.71989,13.26302 0.46543,28 -0.0807,4.675 0.0938,12.05964 0.38791,16.4103 0.35147,5.19991 0.14401,8.38102 -0.60547,9.28409 -0.84064,1.01291 -0.84882,1.95589 -0.0311,3.5897 0.75999,1.51853 1.28334,22.67231 1.66295,67.21591 0.30467,35.75 0.74035,67.7 0.96818,71 0.22783,3.3 0.722,21.75 1.09817,41 0.37617,19.25 0.81539,39.05 0.97606,44 0.16067,4.95 0.63227,42.075 1.048,82.5 0.41574,40.425 0.90873,77.1 1.09554,81.5 0.1868,4.4 0.50536,17.45 0.7079,29 0.20254,11.55 0.38555,21.675 0.40668,22.5 0.0211,0.825 -0.19625,5.1 -0.48308,9.5 -0.61918,9.49851 -0.65845,14.92584 -0.22576,31.20768 0.2802,10.54388 0.0844,12.47292 -1.43684,14.15383 -2.43209,2.68743 -10.2082,5.11225 -13.48454,4.20487 -3.47692,-0.96293 -25.15037,-1.20911 -25.01161,-0.2841 0.28589,1.90587 -0.25797,2.35572 -1.55082,1.28275 -1.09704,-0.91046 -1.8915,-0.88642 -3.47948,0.10529 -1.72619,1.07803 -2.5292,1.0067 -4.98265,-0.44259 -3.20502,-1.89325 -9.81019,-2.24948 -14.85935,-0.8014 -2.11951,0.60786 -3.44802,0.57341 -3.86435,-0.10023 -0.61163,-0.98963 -9.38006,-0.56988 -11.16711,0.53458 -0.46197,0.28552 -3.41601,0.16954 -6.56454,-0.25773 -4.02134,-0.5457 -6.22109,-0.4138 -7.39329,0.44333 -1.2255,0.89611 -2.13175,0.93099 -3.4122,0.13134 -1.35545,-0.84649 -2.20076,-0.67504 -3.79784,0.7703 -1.59179,1.44055 -2.5517,1.63721 -4.26333,0.87346 -1.33072,-0.59378 -3.9732,-0.65609 -6.64622,-0.15672 -2.85344,0.53308 -5.8144,0.41636 -8.29557,-0.32702 -2.77165,-0.83041 -4.51713,-0.85581 -6.19747,-0.0902 -1.3273,0.60476 -2.9275,0.70216 -3.6993,0.22515 -1.7548,-1.08452 -2.85816,-0.35922 -3.99259,2.62455 -1.22964,3.23418 -4.71811,3.17735 -5.96307,-0.0971 -0.85532,-2.24966 -1.52876,-2.51001 -6.72525,-2.59993 -7.81332,-0.1352 -29.23213,0.5292 -36.27475,1.12523 -0.825,0.0698 -2.92738,-0.0951 -4.67196,-0.36648 -1.87698,-0.29198 -3.91828,0.0722 -5,0.89207 -2.46467,1.86801 -4.97975,1.79912 -5.73037,-0.15696 -0.71315,-1.85845 -5.03965,-1.19115 -7.67641,1.18398 -2.07034,1.86491 -5.83124,1.82024 -6.55963,-0.0779 -0.77792,-2.02721 -6.23103,-1.92816 -8.53289,0.15499 -1.70355,1.54169 -1.96106,1.53524 -3.76158,-0.0942 -1.40951,-1.27559 -2.77107,-1.56508 -5.02877,-1.06921 -1.70277,0.37399 -9.15799,0.71655 -16.56716,0.76124 -10.6728,0.0643 -13.47127,0.36463 -13.47127,1.44555 0,2.28578 -3.15707,2.80725 -4.64835,0.76781 -1.05475,-1.44245 -1.62706,-1.59082 -2.5554,-0.66248 -1.41667,1.41667 -4.4891,1.58548 -4.96292,0.27267 -0.52516,-1.45507 -11.48344,-1.61169 -13.19813,-0.18862 -1.21097,1.00501 -1.96492,0.94227 -3.8981,-0.3244 -1.31821,-0.86373 -2.64597,-1.3212 -2.95057,-1.01659 -0.53583,0.53582 -14.48635,1.7638 -18.03653,1.58764 -2.1563,-0.10699 -3.94458,-0.0725 -7.5,0.14458 -1.5125,0.0924 -4.6625,-0.16296 -7,-0.56737 -3.83531,-0.66355 -4.25,-0.539 -4.25,1.27652 0,2.15608 -1.45826,2.69739 -2.54213,0.94365 -0.3631,-0.5875 -1.35473,-0.80165 -2.20364,-0.47589 -0.84891,0.32575 -2.36995,-0.15567 -3.38009,-1.06984 -1.46937,-1.32976 -2.13072,-1.41804 -3.30739,-0.44149 -0.80893,0.67134 -2.39237,0.92812 -3.51876,0.57062 -1.2394,-0.39337 -2.04799,-0.20376 -2.04799,0.48024 0,0.62164 -0.7875,1.00069 -1.75,0.84235 -0.9625,-0.15835 -2.2801,0.0449 -2.928,0.45166 -0.71735,0.45036 -1.42804,-0.0482 -1.81739,-1.27496 -0.35166,-1.10799 -1.08864,-2.01452 -1.63774,-2.01452 -1.97559,0 -4.86687,2.10016 -4.86687,3.53518 0,2.09177 -2.37866,1.80888 -4.5,-0.53518 -0.99549,-1.1 -2.54022,-2 -3.43275,-2 -0.89252,0 -2.39337,0.9 -3.33522,2 -1.8735,2.18809 -5.68925,2.64278 -7.4449,0.88713 -0.66564,-0.66564 -1.65022,-0.76611 -2.45,-0.25 -2.09033,1.34892 -15.144,1.04556 -16.65856,-0.38713 -1.40846,-1.33233 -10.16812,-1.76198 -10.19388,-0.5 -0.0508,2.48936 -1.73291,3.32184 -4.32533,2.14065 -1.46265,-0.66642 -2.65936,-1.58945 -2.65936,-2.05117 0,-0.46171 -0.72314,-0.83948 -1.60699,-0.83948 -0.97588,0 -1.39341,0.55658 -1.06314,1.41724 0.5876,1.53126 -1.90255,2.96489 -3.46867,1.99698 -0.59342,-0.36675 -0.54056,-1.09564 0.1388,-1.91422 0.75881,-0.91431 0.77379,-1.52177 0.0486,-1.96999 -0.57671,-0.35642 -1.04856,-0.17149 -1.04856,0.41097 0,0.58246 -1.09286,1.05902 -2.42857,1.05902 -1.33572,0 -3.10357,0.675 -3.92857,1.5 -1.77465,1.77465 -2.30735,1.85189 -3.168,0.45932 z M -5.55654,826.75803 c -0.33229,-0.33229 -1.1948,-0.36781 -1.91667,-0.0789 -0.79773,0.31922 -0.56078,0.55618 0.60417,0.60416 1.05416,0.0434 1.64479,-0.19293 1.3125,-0.52522 z m 42.27083,-8.39583 c 0,-0.55 -0.19844,-1 -0.44098,-1 -0.24254,0 -0.7191,0.45 -1.05902,1 -0.33992,0.55 -0.14148,1 0.44098,1 0.58246,0 1.05902,-0.45 1.05902,-1 z m -6,-3.84501 c 0,-0.46476 -0.9,-1.6595 -2,-2.65499 -2.20097,-1.99185 -2.55837,-1.41184 -0.96482,1.56574 1.04351,1.94982 2.96482,2.65569 2.96482,1.08925 z m 10.25389,-4.67999 c 0.0571,-0.53625 -0.65004,-1.12019 -1.5715,-1.29765 -1.18721,-0.22864 -1.49481,0.1479 -1.05568,1.29227 0.64751,1.68737 2.44757,1.69106 2.62718,0.005 z m -245.75389,-4.30833 c 0,-1.80866 -1.9573,-1.47847 -2.3455,0.39568 -0.21599,1.04271 0.15888,1.49986 1,1.21948 0.74002,-0.24667 1.3455,-0.9735 1.3455,-1.61516 z m -9.5,-4.22569 c 0,-0.51754 -0.66088,-0.94098 -1.46861,-0.94098 -0.89209,0 -1.24352,0.5866 -0.89522,1.49426 0.59029,1.53826 2.36383,1.12315 2.36383,-0.55328 z m 171.60417,-12.67015 c -1.01652,-1.01651 -1.85525,0.51389 -1.02122,1.86338 0.63003,1.01942 0.86558,1.02021 1.2043,0.004 0.2316,-0.69479 0.14921,-1.53513 -0.18308,-1.86742 z M 6.07592,779.8622 c 0.39855,-1.03862 -0.0676,-1.5 -1.51546,-1.5 -1.74534,0 -1.88524,0.248 -0.84617,1.5 0.68469,0.825 1.36664,1.5 1.51546,1.5 0.14881,0 0.52958,-0.675 0.84617,-1.5 z m 58.38884,-2.25 c 0.24412,-0.73318 -0.44516,-1.25 -1.66714,-1.25 -1.22833,0 -2.08333,0.64569 -2.08333,1.57332 0,1.83788 3.12044,1.56887 3.75047,-0.32332 z m -256.25666,-6.19664 c 0.3796,-3.27066 0.3947,-6.42474 0.0335,-7.00909 -0.36115,-0.58434 -0.58803,-8.14585 -0.50419,-16.80336 0.0838,-8.6575 0.1232,-16.19091 0.0874,-16.74091 -0.0357,-0.55 -0.26497,-3.7 -0.5094,-7 -0.24442,-3.3 -0.41063,-9.825 -0.36934,-14.5 0.10733,-12.15434 0.1087,-12.07129 -0.27838,-16.81415 -0.19365,-2.37279 -0.64661,-4.49618 -1.00657,-4.71865 -0.87466,-0.54057 -3.11147,4.45756 -2.46385,5.50544 0.38899,0.62939 1.84669,39.45419 1.67181,44.52736 -0.36604,10.61863 -0.093,36.49767 0.39855,37.77869 1.23021,3.20588 2.24755,1.74395 2.94036,-4.22533 z m -43.93019,3.84371 c 0.95646,-1.54759 0.51388,-48.43267 -1.04891,-111.11613 -0.29181,-11.70452 -0.76259,-42.43094 -1.04618,-68.28094 -0.2836,-25.85 -0.74085,-56.9 -1.01613,-69 -0.27527,-12.1 -0.45048,-28.75 -0.38935,-37 0.0611,-8.25 0.0828,-15.675 0.0483,-16.5 -0.0346,-0.825 -0.29668,-30.975 -0.58244,-67 -0.28575,-36.025 -0.76577,-70.675 -1.06671,-77 -0.71697,-15.06926 -0.69412,-14.06407 -0.39783,-17.5 0.55426,-6.42761 -1.33686,-75.04918 -2.09068,-75.86287 -2.1728,-2.34534 -2.97209,1.07049 -2.90143,12.39947 0.0409,6.5545 -0.22239,12.39736 -0.58504,12.98414 -0.36265,0.58678 -0.22359,1.60966 0.30903,2.27306 0.62062,0.77303 0.62822,3.69247 0.0211,8.12936 -0.52099,3.80773 -0.64058,8.08273 -0.26576,9.5 0.37482,1.41726 0.82415,21.02684 0.99852,43.57684 0.17437,22.55 0.36349,41.9 0.42027,43 0.0568,1.1 0.0802,8.26945 0.0521,15.9321 -0.036,9.80617 0.30421,14.15175 1.14888,14.67379 0.92625,0.57245 0.92953,1.06766 0.0144,2.17035 -0.8772,1.05697 -1.14662,12.0693 -1.03554,42.32622 0.13841,37.69698 1.01743,53.84563 3.10607,57.06213 0.41593,0.64052 0.21207,1.34598 -0.45302,1.56768 -0.92868,0.30955 -1.18372,13.72897 -1.09916,57.83541 0.0606,31.58777 0.33796,67.55732 0.61644,79.93232 0.27849,12.375 0.44816,25.2 0.37704,28.5 -0.14962,6.94265 -0.18109,4.5157 0.70675,54.5 0.62092,34.95668 1.11498,53.07648 1.46559,53.75 0.39491,0.75864 4.1156,0.0825 4.69375,-0.85293 z m 28.43638,-11.39707 c 0,-7.05366 -0.40967,-11.63515 -1.07729,-12.04777 -0.74444,-0.46009 -0.86932,0.72101 -0.40418,3.82275 0.3702,2.46871 0.29248,4.72241 -0.17272,5.00824 -0.46519,0.28583 -0.6976,3.94352 -0.51646,8.12821 0.50754,11.72487 2.17065,7.96182 2.17065,-4.91143 z m 30.48315,11.52726 c 0.84725,-1.37087 1.36703,-12.16202 0.67512,-14.01617 -0.3078,-0.82485 -1.0245,0.68948 -1.60694,3.39531 -0.97558,4.53231 -3.61999,7.85827 -5.08398,6.39429 -0.56849,-0.5685 -0.89744,-12.58547 -1.56275,-57.08947 -0.1216,-8.13383 -0.60109,-15.02364 -1.06555,-15.31069 -0.46445,-0.28705 -0.39571,-1.36041 0.15277,-2.38524 1.5461,-2.88892 0.82867,-19.51529 -0.84209,-19.51529 -1.11038,0 -1.32472,6.12932 -1.20649,34.5 0.0872,20.91808 0.52033,34.63123 1.10027,34.83333 1.30653,0.45532 1.21415,5.88939 -0.11407,6.71028 -0.67821,0.41916 -0.80697,2.18161 -0.35134,4.80902 0.39557,2.28105 0.65192,4.59737 0.56967,5.14737 -0.58657,3.92238 -0.50797,12.5462 0.11621,12.75025 2.40967,0.78774 8.68837,0.63587 9.21917,-0.22299 z m -24.10159,-1.5792 c 0.34149,-0.88992 0.17385,-1.29132 -0.39301,-0.94098 -0.5437,0.33602 -0.98855,1.0344 -0.98855,1.55194 0,1.43843 0.71677,1.12146 1.38156,-0.61096 z m 55.47862,-7.00042 c 0.039,-2.7212 0.36383,-6.18514 0.72191,-7.69764 0.40569,-1.71358 0.24112,-2.75 -0.43668,-2.75 -0.74429,0 -1.09017,-5.85747 -1.09545,-18.55105 -0.004,-10.20307 -0.40693,-19.2644 -0.89486,-20.13628 -1.48722,-2.65752 -2.28794,6.21794 -1.60164,17.75321 0.53337,8.96503 1.26049,27.44536 1.47285,37.43412 0.10907,5.13005 1.75135,-0.29002 1.83387,-6.05236 z m 7.08089,2.80236 c -0.36537,-3.1625 -0.47976,-6.07985 -0.25419,-6.48299 0.67744,-1.21074 -0.84043,-7.76701 -1.79817,-7.76701 -1.01855,0 -1.21081,3.34456 -0.24763,4.30774 0.35259,0.3526 0.61233,3.67678 0.57719,7.38707 -0.0639,6.74246 0.24539,8.30519 1.64344,8.30519 0.40902,0 0.44474,-2.5875 0.0794,-5.75 z m 14.61093,0.54473 c 2.05679,-2.8629 4.74611,-7.4754 5.97627,-10.25 2.47046,-5.57211 11.2593,-20.67421 14.23559,-24.4614 1.52744,-1.9436 2.81958,-2.41666 6.60101,-2.41666 2.58599,0 5.2268,0.525 5.86846,1.16666 4.53051,4.53051 11.17167,-4.93246 16.14804,-23.0093 0.70799,-2.57179 3.23239,-7.66149 5.60978,-11.31045 4.08466,-6.26937 4.50311,-6.61013 7.60407,-6.19224 2.19572,0.2959 3.45698,-0.015 3.81177,-0.93956 0.29163,-0.75998 1.21936,-1.38178 2.06163,-1.38178 0.88096,0 1.53138,-0.87738 1.53138,-2.06574 0,-2.90888 1.8023,-5.93426 3.53518,-5.93426 0.80565,0 1.46482,0.37777 1.46482,0.83948 0,0.46172 1.10879,1.34469 2.46397,1.96215 1.35519,0.61746 3.56618,3.29776 4.91333,5.95622 3.24108,6.39597 11.87149,19.32932 14.24025,21.34015 3.44005,2.92024 5.34989,3.02547 7.93798,0.43738 1.34446,-1.34446 2.44447,-2.97582 2.44447,-3.62525 0,-1.35068 4.64115,-5.91013 6.01603,-5.91013 0.50214,0 3.22228,3.6 6.04477,8 2.82248,4.4 5.72795,8 6.45661,8 0.72866,0 3.3426,-4.23112 5.80876,-9.40248 2.80788,-5.8879 5.21029,-9.63301 6.42713,-10.01922 1.06875,-0.33921 2.45183,-1.73309 3.0735,-3.09752 1.41992,-3.11637 4.58372,-3.22831 9.97091,-0.35279 3.91943,2.09207 4.0302,2.09629 6.56308,0.25 1.417,-1.03289 2.5905,-2.40835 2.60779,-3.05656 0.0173,-0.64822 0.81892,-1.96578 1.78142,-2.92792 0.9625,-0.96214 2.97013,-3.28431 4.4614,-5.16036 1.49127,-1.87606 5.14357,-5.15265 8.11622,-7.28132 5.2575,-3.76481 5.42124,-4.02816 6.00702,-9.66107 0.33121,-3.18492 0.66761,-11.64076 0.74756,-18.79076 0.17673,-15.80357 0.28261,-17.72341 1.04792,-19 0.32973,-0.55 0.42044,-8.2 0.20158,-17 -0.21885,-8.8 -0.36095,-17.575 -0.31577,-19.5 0.26457,-11.27297 -0.31986,-26.64654 -1.04653,-27.52893 -0.46604,-0.56591 -0.64987,-9.11591 -0.4085,-19 0.24136,-9.88409 0.0399,-19.54607 -0.4478,-21.47107 -0.7918,-3.12564 -1.94483,-11.08106 -3.6534,-25.2069 -0.31313,-2.5888 -1.39308,-5.72421 -2.39989,-6.96757 -1.62125,-2.00216 -2.02812,-2.09672 -3.55813,-0.82692 -3.10579,2.57757 -16.36244,1.27887 -22.98783,-2.25203 -1.09239,-0.58217 -5.18801,-1.37199 -9.10138,-1.75515 -3.91338,-0.38317 -8.53211,-1.43799 -10.26385,-2.34405 -14.76013,-7.72261 -15.5768,-7.99444 -18.88245,-6.28502 -4.25384,2.19974 -4.82109,3.22762 -7.25024,13.13764 -2.89113,11.79473 -5.03847,18.5506 -6.65503,20.93777 -2.41585,3.56746 -15.63071,16.56223 -16.84274,16.56223 -0.65842,0 -1.69096,1.08384 -2.29453,2.40854 -1.38355,3.03655 -8.91445,8.26677 -14.7818,10.26598 -4.53092,1.54384 -8.07056,5.54144 -11.3562,12.82548 -0.74427,1.65 -1.82555,4.02464 -2.40285,5.27698 -0.86275,1.87159 -3.06411,3.10159 -6.68278,3.73396 -0.275,0.048 -1.56612,0.4501 -2.86916,0.89342 -3.00994,1.02407 -6.88062,-0.96011 -8.52294,-4.369 -0.68155,-1.41468 -1.1139,-5.47359 -0.97811,-9.18262 l 0.24335,-6.64725 -4.30778,-1.08472 c -3.4171,-0.86043 -4.57759,-1.73608 -5.61271,-4.23509 -1.64666,-3.97538 -1.27359,-13.67359 0.63994,-16.63568 2.04087,-3.15922 6.16956,-3.00579 7.41715,0.27563 0.52814,1.38909 1.7545,2.80749 2.72525,3.152 0.97076,0.3445 2.44001,1.18398 3.26501,1.8655 0.825,0.68152 3.36665,1.54493 5.64811,1.91868 4.10376,0.67229 4.21867,0.60687 10.75,-6.12 3.63104,-3.73976 6.60189,-7.16591 6.60189,-7.61366 0,-0.8123 6.009,-10.54344 10.02092,-16.22815 4.66856,-6.61514 7.02936,-10.57741 9.53311,-16 1.0158,-2.2 2.38603,-4.675 3.04496,-5.5 3.23407,-4.04917 5.20998,-8.79103 4.11814,-9.88287 -1.99582,-1.99582 -6.383,-1.25498 -8.86217,1.49649 -7.87414,8.73901 -12.61705,13.38638 -13.66156,13.38638 -0.65637,0 -1.1934,0.45 -1.1934,1 0,0.55 -0.41697,1 -0.92659,1 -0.50963,0 -4.59266,2.25 -9.07341,5 -4.48075,2.75 -8.29867,5 -8.48427,5 -0.1856,0 -3.75257,1.59931 -7.9266,3.55402 -4.61639,2.16187 -7.58913,4.15576 -7.58913,5.09022 0,0.84491 -1.2375,3.26079 -2.75,5.36862 -3.67239,5.11787 -7.3387,5.85598 -12.41177,2.49878 -2.08744,-1.3814 -4.08181,-2.51164 -4.43192,-2.51164 -1.28936,0 -7.61114,7.6411 -10.11796,12.22952 -1.42115,2.60123 -3.30491,4.96658 -4.18613,5.25634 -0.88122,0.28975 -3.09817,3.78647 -4.92656,7.77048 -1.82839,3.98401 -3.96477,8.43619 -4.74751,9.89374 -0.94882,1.76679 -1.25792,4.43323 -0.92737,8 0.64008,6.9068 2.58034,16.08428 3.65746,17.29992 0.46297,0.5225 0.84176,1.77283 0.84176,2.77852 0,1.00568 1.28583,4.40318 2.85739,7.55 1.57157,3.14681 3.16799,7.73472 3.54762,10.19536 0.37962,2.46063 1.28203,5.16063 2.00534,6 0.72332,0.83936 1.56915,2.87612 1.87963,4.52612 0.31047,1.65 1.11089,4.35 1.77871,6 0.66782,1.65 1.33835,3.675 1.49007,4.5 0.15173,0.825 0.60052,3.3 0.99731,5.5 0.3968,2.2 1.1335,4.52561 1.63711,5.16803 0.50361,0.64242 1.07614,6.01242 1.27229,11.93334 0.33522,10.11892 0.21186,10.95511 -2.05442,13.92636 -3.08754,4.04798 -3.08703,8.14217 0.002,19.2752 4.18188,15.06973 4.25124,15.85432 2.84689,32.20219 -0.73209,8.52218 -1.70621,20.44488 -2.1647,26.49488 -0.46427,6.12622 -1.99935,15.32548 -3.46463,20.7625 -1.44666,5.36938 -2.63061,10.67271 -2.63061,11.78518 0,1.11248 -0.69005,3.07584 -1.53344,4.36302 -0.8434,1.28718 -1.7264,3.34226 -1.96224,4.56684 -0.23583,1.22459 -0.95088,2.8556 -1.589,3.62449 -0.96101,1.15795 -0.46852,1.39797 2.86843,1.39797 3.70993,0 4.32448,-0.41179 7.76825,-5.20527 z m 7.04456,-41.6385 c -0.34605,-0.55992 -0.1419,-1.31919 0.45366,-1.68727 1.53748,-0.95021 2.52947,0.35135 1.24598,1.63484 -0.71818,0.71818 -1.27752,0.73543 -1.69964,0.0524 z m 12.13935,34.59358 c 0.21511,-11.16926 0.10106,-12.07342 -1.29283,-10.25011 -1.79001,2.34147 -1.81197,17.8279 -0.0294,20.7503 0.58709,0.9625 1.07169,1.74992 1.07689,1.74981 0.005,-1e-4 0.11561,-5.5126 0.24536,-12.25 z m 17.69637,8.66399 c 0.35961,-1.43281 0.2102,-3.13965 -0.33202,-3.79299 -0.54222,-0.65334 -0.65101,-1.72968 -0.24176,-2.39186 1.23158,-1.99273 0.71798,-18.05247 -0.62012,-19.39057 -0.66278,-0.66278 -1.43454,-0.97556 -1.71503,-0.69507 -0.87803,0.87803 -1.0665,27.28998 -0.20425,28.623 1.10808,1.71308 2.32325,0.79482 3.11318,-2.35251 z m -73.92021,-10.1638 c -0.436,-7.0125 -0.71871,-14.4375 -0.62824,-16.5 0.0905,-2.0625 -0.29639,-3.75 -0.85967,-3.75 -0.85617,0 -1.66563,11.23953 -1.22431,17 0.0632,0.825 0.18983,4.7625 0.28139,8.75 0.13238,5.76535 0.47948,7.25 1.69502,7.25 1.33292,0 1.42709,-1.63175 0.73581,-12.75 z m 83.80369,6 c 0.48643,-6.32963 0.3248,-21.5324 -0.25251,-23.75 -0.14318,-0.55 -0.32849,-1.9 -0.41179,-3 -0.33097,-4.37034 -2.1842,-2.73753 -2.8375,2.5 -0.76141,6.10432 -0.8803,29.0717 -0.15658,30.25 0.25336,0.4125 1.06343,0.75 1.80015,0.75 0.93579,0 1.49583,-2.03433 1.85823,-6.75 z m 8.93494,-13.62685 c -0.19837,-10.11319 -0.74725,-19.67812 -1.21974,-21.25539 -0.9425,-3.14633 -0.8814,-3.78376 -1.49831,15.63224 -0.14854,4.675 -0.32019,9.175 -0.38146,10 -0.31498,4.24173 0.46332,13.66998 1.22641,14.85676 1.82682,2.8411 2.22575,-1.25527 1.8731,-19.23361 z m 8.95251,18.12685 c 0.70965,-3.80148 -0.18099,-55.73486 -1.09329,-63.75 -0.15085,-1.32531 -0.27408,-1.32364 -1.05816,0.0144 -0.48809,0.83291 -0.93477,4.65791 -0.99264,8.5 -0.0579,3.84208 -0.15114,9.91061 -0.2073,13.48561 -0.24342,15.49797 0.27772,42.25019 0.84253,43.25 0.83064,1.47038 2.09553,0.71413 2.50886,-1.50001 z m -37.559,-1.24929 c -0.16474,-2.85506 -1.64421,-3.45557 -1.64421,-0.66738 0,1.56786 0.78807,3.16667 1.56088,3.16667 0.12515,0 0.16265,-1.12468 0.0833,-2.49929 z m 46.51807,-25.57549 c -0.0964,-14.37547 -0.4239,-26.53952 -0.72779,-27.03122 -1.50221,-2.43062 -2.53712,-0.35159 -2.41724,4.856 0.0728,3.1625 0.11556,9.125 0.095,13.25 -0.0428,8.60253 0.66058,33.86699 0.99626,35.78333 0.15019,0.85736 0.55743,0.95071 1.22691,0.28123 0.62759,-0.62759 0.93661,-10.77062 0.82684,-27.13934 z m 9.4431,-3.00232 c 0.0879,-18.73149 -0.24936,-31.38364 -0.87762,-32.9229 -1.0037,-2.45912 -1.03982,-2.43492 -2.20854,1.47938 -0.65348,2.18865 -0.99794,6.91365 -0.76548,10.5 0.23246,3.58634 0.37316,7.42062 0.31266,8.52062 -0.31921,5.80391 -0.0689,30.81112 0.36038,36 0.27299,3.3 0.51365,6.375 0.53478,6.83333 0.0211,0.45834 0.59253,0.64864 1.26974,0.4229 0.93487,-0.31162 1.26568,-7.73489 1.37408,-30.83333 z m 76.86889,16.99633 c -0.0148,-19.19666 -0.69459,-31.93736 -1.73835,-32.58244 -0.51322,-0.31719 -0.85945,3.26324 -0.80288,8.30277 0.0547,4.87324 -0.0739,10.66044 -0.2857,12.86044 -0.21184,2.2 -0.0486,6.21796 0.36267,8.92879 0.4113,2.71083 0.34628,6.31083 -0.14449,8 -1.06583,3.66841 -0.15168,8.83326 1.46789,8.29341 0.79276,-0.26426 1.148,-4.56225 1.14086,-13.80297 z m -189.47427,11.08077 c 0,-1.1 -0.45,-2 -1,-2 -0.55,0 -1,0.9 -1,2 0,1.1 0.45,2 1,2 0.55,0 1,-0.9 1,-2 z m 126.66228,-1.25 c -0.27741,-0.6875 -0.50439,-0.125 -0.50439,1.25 0,1.375 0.22698,1.9375 0.50439,1.25 0.27741,-0.6875 0.27741,-1.8125 0,-2.5 z m 9.33772,-0.80902 c 0,-2.45136 -0.39607,-3.81423 -1,-3.44098 -1.69337,1.04656 -1.11973,7.5 0.66667,7.5 0.18333,0 0.33333,-1.82656 0.33333,-4.05902 z m 30.41485,-5.70173 c -0.23593,-4.80659 -0.41863,-9.97675 -0.40602,-11.48925 0.0126,-1.5125 -0.43421,-2.75 -0.99295,-2.75 -1.12232,0 -1.41957,15.73154 -0.39413,20.85877 1.18294,5.91466 2.22034,2.08489 1.7931,-6.61952 z m 15.31296,6.98181 c 0.18512,-0.94658 0.30254,-3.52106 0.26093,-5.72106 -0.0416,-2.2 -0.115,-8.275 -0.1631,-13.5 -0.0967,-10.50625 -1.0642,-14.16638 -2.64329,-10 -0.52114,1.375 -0.74877,2.83755 -0.50585,3.25011 1.04808,1.78001 0.97705,17.57515 -0.0934,20.76247 -0.96776,2.88165 -0.903,3.86123 0.37283,5.63948 1.67069,2.32859 2.24976,2.23855 2.77185,-0.431 z m 15.6901,1.91176 c 0.29478,-0.47695 0.53176,-3.06445 0.52664,-5.75 -0.005,-2.68555 0.009,-6.00782 0.032,-7.38282 0.27738,-16.77828 -0.88686,-42.31029 -1.97912,-43.40255 -0.66327,-0.66327 -1.02537,-0.51164 -1.08078,0.45255 -0.0458,0.7975 -0.27507,2.575 -0.50941,3.95 -0.23434,1.375 -0.40622,2.95 -0.38195,3.5 0.0243,0.55 0.22387,10.9 0.44355,23 0.21969,12.1 0.42907,23.0125 0.46529,24.25 0.0657,2.245 1.46829,3.02588 2.48376,1.38282 z M 5.644,766.6122 c 0.03866,-0.6875 -0.37971,-1.25 -0.92971,-1.25 -0.55,0 -0.96837,1.4625 -0.92971,3.25 0.0589,2.72353 0.2095,2.92602 0.92971,1.25 0.47269,-1.1 0.89106,-2.5625 0.92971,-3.25 z m 47.48472,-4.17312 c -0.6071,-5.64207 -0.64722,-9.6256 -0.21731,-21.57688 0.0396,-1.1 -0.28218,-7.2875 -0.71499,-13.75 -0.58922,-8.79788 -1.12551,-11.75 -2.13453,-11.75 -0.74118,0 -1.3476,0.675 -1.3476,1.5 0,0.825 0.3375,1.50007 0.75,1.50016 0.4125,8e-5 0.70057,10.68758 0.64015,23.75 -0.12373,26.75367 0.13298,29.89049 2.29911,28.09277 1.12031,-0.92978 1.27849,-2.62372 0.72517,-7.76605 z m 28.27856,5.19215 c -0.25354,-0.97297 -0.47766,-0.41903 -0.49804,1.23097 -0.0204,1.65 0.18706,2.44606 0.46099,1.76903 0.27392,-0.67703 0.29059,-2.02703 0.0371,-3 z m 94.12888,0.30622 c 0.12686,-1.88362 -0.23117,-3.71018 -0.79561,-4.05902 -0.6373,-0.39387 -1.02626,0.90415 -1.02626,3.42475 0,4.92067 1.49807,5.44221 1.82187,0.63427 z M -2.6026,768.1747 c -0.31922,-0.79773 -0.55618,-0.56078 -0.60416,0.60417 -0.0434,1.05416 0.19293,1.64479 0.52522,1.3125 0.33229,-0.33229 0.36781,-1.1948 0.0789,-1.91667 z m 22.77418,1.2566 c 0.31644,-0.512 0.11799,-1.21356 -0.44098,-1.55902 -0.55897,-0.34546 -1.01631,0.0734 -1.01631,0.9309 0,1.75653 0.60006,2.01516 1.45729,0.62812 z m 55.54271,-0.5691 c 0,-0.825 -0.675,-1.5 -1.5,-1.5 -1.56157,0 -1.98397,1.1827 -0.83333,2.33333 1.15063,1.15064 2.33333,0.72824 2.33333,-0.83333 z m 59.24218,-10.4435 c -0.14181,-6.00852 -0.60704,-11.8686 -1.03386,-13.0224 -0.42682,-1.1538 -0.4253,-5.79598 0.003,-10.31596 0.99136,-10.45288 0.0804,-19.78288 -2.08672,-21.37223 -1.47101,-1.07882 -1.67236,0.009 -2.12498,11.48118 -0.47495,12.03793 0.31558,18.17291 2.34168,18.17291 0.49677,0 0.34753,0.66955 -0.33162,1.48788 -0.75604,0.91097 -1.16748,4.10984 -1.06112,8.25 0.0955,3.71917 0.17651,8.77934 0.17991,11.24484 0.006,4.40195 1.1202,6.24111 3.28047,5.4153 0.71795,-0.27445 1.00257,-4.15031 0.83286,-11.34152 z m -144.55285,6.1935 c -0.25153,-0.9625 -0.45733,-0.175 -0.45733,1.75 0,1.925 0.2058,2.7125 0.45733,1.75 0.25152,-0.9625 0.25152,-2.5375 0,-3.5 z m 153.03984,4.14583 c -0.33229,-0.33229 -1.1948,-0.36781 -1.91667,-0.0789 -0.79773,0.31922 -0.56078,0.55618 0.60417,0.60416 1.05416,0.0434 1.64479,-0.19293 1.3125,-0.52522 z m 42.07175,-0.65595 c 0.97346,-1.17295 1.1999,-6.28259 1.01463,-22.89536 -0.0728,-6.52814 -0.12864,-6.66347 -2.91828,-7.0729 l -2.84405,-0.41742 0.10905,15.8229 c 0.0988,14.33299 0.27306,15.8229 1.85094,15.8229 0.95805,0 2.21251,-0.56706 2.78771,-1.26012 z m -433.80092,-0.73988 c 0,-0.55 -0.47656,-1 -1.05902,-1 -0.58246,0 -0.7809,0.45 -0.44098,1 0.33992,0.55 0.81648,1 1.05902,1 0.24254,0 0.44098,-0.45 0.44098,-1 z m 348,-2.92857 c 0,-0.58929 -0.675,-1.07143 -1.5,-1.07143 -0.94444,0 -1.5,0.95238 -1.5,2.57143 0,2.28571 0.16667,2.40476 1.5,1.07143 0.825,-0.825 1.5,-1.98215 1.5,-2.57143 z m 24,0.86955 c 0,-1.7847 -0.41658,-2.80156 -1,-2.44098 -0.55,0.33992 -1,1.71648 -1,3.05902 0,1.34254 0.45,2.44098 1,2.44098 0.55,0 1,-1.37656 1,-3.05902 z m 43.98469,0.80902 c -0.008,-1.2375 -0.45153,-2.925 -0.98469,-3.75 -0.72105,-1.11575 -0.9733,-0.53938 -0.98469,2.25 -0.008,2.0625 0.43469,3.75 0.98469,3.75 0.55,0 0.99311,-1.0125 0.98469,-2.25 z m -367.60516,-5.26058 c -0.19743,-13.42579 -0.41622,-16.48942 -1.1776,-16.48942 -0.43894,0 -0.86282,3.4875 -0.94195,7.75 -0.0791,4.2625 -0.46131,9.48327 -0.84928,11.6017 -0.62667,3.42185 -0.49545,3.81127 1.17576,3.48942 1.60418,-0.30893 1.86818,-1.2441 1.79307,-6.3517 z m 30.28275,3.26058 c -0.27741,-0.6875 -0.50439,-0.125 -0.50439,1.25 0,1.375 0.22698,1.9375 0.50439,1.25 0.27741,-0.6875 0.27741,-1.8125 0,-2.5 z m 260.33772,-0.75 c 0,-2.2 -0.23614,-4 -0.52475,-4 -1.00132,0 -2.41609,4.99059 -1.84021,6.49132 1.09249,2.84697 2.36496,1.50652 2.36496,-2.49132 z m 25,2 c 0,-1.1 -0.45,-2 -1,-2 -0.55,0 -1,0.9 -1,2 0,1.1 0.45,2 1,2 0.55,0 1,-0.9 1,-2 z m -95.52065,-3.49952 c 0.11922,-1.96364 -0.16486,-3.80612 -0.63129,-4.09439 -0.46643,-0.28827 -0.84806,1.60243 -0.84806,4.20156 0,5.38437 1.15101,5.30098 1.47935,-0.10717 z m 54.59795,-1.30383 c -0.39666,-1.48316 -1.36382,-2.69665 -2.14925,-2.69665 -0.78543,0 -1.24838,0.675 -1.02878,1.5 0.21959,0.825 0.61945,2.81434 0.88856,4.42075 0.44001,2.62657 0.61627,2.7471 1.74998,1.19665 0.78304,-1.07087 0.98745,-2.74579 0.53949,-4.42075 z m 68.26778,4.26022 c -0.32569,-0.84872 -0.80663,-1.32866 -1.06875,-1.06653 -0.26213,0.26213 -0.17998,0.95654 0.18255,1.54313 0.98605,1.59546 1.56238,1.28551 0.8862,-0.4766 z m 15.60152,-2.81309 c -0.96285,-0.88745 -1.09592,-0.73326 -0.59378,0.68801 0.35595,1.00748 0.69938,2.35748 0.76318,3 0.0638,0.64251 0.331,0.33291 0.59378,-0.68801 0.26278,-1.02092 -0.0807,-2.37092 -0.76318,-3 z M -96.8048,752.9279 c 0.19411,-7.35172 -0.0648,-10.5657 -0.85097,-10.56572 -0.77127,-10e-6 -1.0573,2.77749 -0.90109,8.75 0.12586,4.81251 0.23836,9.83752 0.25,11.16669 0.0116,1.32916 0.29159,2.14623 0.62212,1.8157 0.33053,-0.33054 0.7265,-5.35554 0.87994,-11.16667 z m 178.71909,7.2343 c -0.93333,-0.93333 -1.2,-0.66667 -1.2,1.2 0,1.86667 0.26667,2.13333 1.2,1.2 0.93333,-0.93333 0.93333,-1.46667 0,-2.4 z m -92.51689,0.0125 c -0.31922,-0.79773 -0.55618,-0.56078 -0.60416,0.60417 -0.0434,1.05416 0.19293,1.64479 0.52522,1.3125 0.33229,-0.33229 0.36781,-1.1948 0.0789,-1.91667 z m 75.80082,-1.63123 c 0.83481,-2.17546 -0.48192,-3.42783 -2.14917,-2.04413 -1.1851,0.98355 -1.65213,0.96739 -2.29917,-0.0796 -0.44659,-0.72259 -1.28559,-1.0211 -1.86445,-0.66335 -0.6979,0.43133 -0.49939,1.61415 0.58926,3.51102 1.37064,2.3882 1.9356,2.67704 3.42136,1.74917 0.97879,-0.61127 2.01477,-1.72418 2.30217,-2.47315 z m 50.15482,-0.18127 c 0.0577,-2.2 -0.28744,-4 -0.76693,-4 -0.4795,0 -0.87182,0.39375 -0.87182,0.875 0,0.48125 -0.28125,2.28125 -0.625,4 -0.46052,2.30262 -0.2587,3.125 0.76693,3.125 0.93977,0 1.426,-1.29937 1.49682,-4 z M 3.83838,759.09553 c -0.98762,-0.98026 -1.10248,-0.8654 -0.5598,0.5598 0.37553,0.98622 0.93469,1.54122 1.24258,1.23333 0.30789,-0.30789 6.4e-4,-1.11479 -0.68278,-1.79313 z m -226.46181,-1.98333 c -0.27741,-0.6875 -0.50438,-0.125 -0.50438,1.25 0,1.375 0.22697,1.9375 0.50438,1.25 0.27741,-0.6875 0.27741,-1.8125 0,-2.5 z m 322.33772,2.25 c 0,-0.55 -0.47656,-1 -1.05902,-1 -0.58246,0 -0.7809,0.45 -0.44098,1 0.33992,0.55 0.81648,1 1.05902,1 0.24254,0 0.44098,-0.45 0.44098,-1 z m 24.07964,-6 c -0.54565,-4.81924 -0.7171,-5.15221 -1.38526,-2.69012 -0.85622,3.15509 0.15868,10.29118 1.2821,9.01482 0.39923,-0.45359 0.44565,-3.2997 0.10316,-6.3247 z m 51.44177,3.12779 c 0.21767,-2.76704 -0.96502,-6.10548 -1.80634,-5.09883 -0.6002,0.71816 0.42843,9.16087 1.04145,8.54785 0.29464,-0.29464 0.63885,-1.8467 0.76489,-3.44902 z m -329.18103,-8.62779 c -0.539,-4.17568 -0.76064,-4.58485 -1.34439,-2.48188 -0.38445,1.38496 -0.46151,5.20996 -0.17126,8.5 0.50369,5.7093 0.56495,5.82239 1.34439,2.48188 0.44917,-1.925 0.52623,-5.75 0.17126,-8.5 z m 127.3219,8.25 c -0.27741,-0.6875 -0.50439,-0.125 -0.50439,1.25 0,1.375 0.22698,1.9375 0.50439,1.25 0.27741,-0.6875 0.27741,-1.8125 0,-2.5 z m 117.17698,-9 c 0.94169,-33.43457 0.93028,-35.83985 -0.16824,-35.47367 -1.9348,0.64493 -2.27406,4.70051 -2.04502,24.44697 0.19095,16.46307 0.57744,21.2767 1.7083,21.2767 0.11895,0 0.34618,-4.6125 0.50496,-10.25 z m 76.30105,4.53624 c -0.68812,-1.2296 -0.99471,-1.00248 -1.53096,1.13412 -0.3688,1.46939 -0.35766,3.17786 0.0247,3.7966 1.0545,1.70622 2.52554,-3.1093 1.50622,-4.93072 z M 74.19712,725.446 c -0.2382,-14.07109 -0.55679,-32.74592 -0.70796,-41.49962 -0.16355,-9.46981 -0.67988,-16.05125 -1.27487,-16.25023 -0.96344,-0.3222 -1.13358,37.3658 -0.17302,38.32637 0.23056,0.23055 0.22306,4.56379 -0.0166,9.62943 -0.23972,5.06564 -0.35471,14.38525 -0.25554,20.71025 0.0992,6.325 0.16714,12.4 0.15104,13.5 -0.0161,1.1 0.21438,3.125 0.51218,4.5 l 0.54146,2.5 0.82823,-2.9162 c 0.45552,-1.6039 0.63333,-14.4289 0.39513,-28.5 z m -288.88283,26.3162 c -0.44371,-1.15629 -0.9989,-1.4011 -1.66556,-0.73443 -0.55,0.55 -0.7005,1.78049 -0.33444,2.73443 0.44371,1.15629 0.9989,1.4011 1.66556,0.73443 0.55001,-0.55 0.7005,-1.78049 0.33444,-2.73443 z m -6.61531,-1.20902 c 0.008,-0.71996 -0.43469,-1.0309 -0.98469,-0.69098 -0.55,0.33992 -0.99311,1.60398 -0.98469,2.80902 0.0125,1.78123 0.1966,1.91046 0.98469,0.69098 0.53316,-0.825 0.97627,-2.08906 0.98469,-2.80902 z m 52.01531,2.30902 c 0,-0.825 -0.45,-1.5 -1,-1.5 -0.55,0 -1,0.675 -1,1.5 0,0.825 0.45,1.5 1,1.5 0.55,0 1,-0.675 1,-1.5 z m 234.075,0.225 c -0.12369,-1.1957 -1.49529,-0.96414 -1.925,0.325 -0.22,0.66 0.14,1.02 0.8,0.8 0.66,-0.22 1.16625,-0.72625 1.125,-1.125 z m 86.925,-1.225 c 0,-0.825 -0.45,-1.5 -1,-1.5 -0.55,0 -1,0.675 -1,1.5 0,0.825 0.45,1.5 1,1.5 0.55,0 1,-0.675 1,-1.5 z m -290.8,-2.7 c -0.93333,-0.93333 -1.2,-0.66667 -1.2,1.2 0,1.86667 0.26667,2.13333 1.2,1.2 0.93333,-0.93333 0.93333,-1.46667 0,-2.4 z m 9.15883,-7.3 c -0.36728,-1.65 -0.75659,-12.72258 -0.86513,-24.60574 -0.10854,-11.88315 -0.53139,-22.14623 -0.93967,-22.80683 -0.40827,-0.66061 -0.52689,-2.18802 -0.26359,-3.39427 0.8046,-3.68608 -0.72245,-28.71756 -1.75186,-28.71662 -1.17702,10e-4 -1.55053,4.89804 -0.42658,5.59268 0.44381,0.27429 0.5853,4.19592 0.31443,8.71474 -1.15822,19.32228 -1.38073,34.06698 -0.52974,35.10316 0.50269,0.61208 0.89789,2.91288 0.87822,5.11288 -0.0197,2.2 0.0593,11.2 0.17561,20 l 0.21138,16 1.93236,-4 c 1.31922,-2.7308 1.72047,-4.9519 1.26457,-7 z m 272.49098,4.25 -0.1502,-5.25 -0.63515,4.5 c -0.60707,4.30109 -0.46704,6 0.49456,6 0.24254,0 0.37339,-2.3625 0.29079,-5.25 z m -60.36669,-16.75 c -0.38423,-30.8087 -0.5595,-34.64938 -1.48312,-32.5 -0.47269,1.1 -0.89106,3.49208 -0.92971,5.31574 -0.0387,1.82366 -0.52151,4.15885 -1.07299,5.18931 -0.68103,1.27252 -0.66545,2.08201 0.0485,2.52329 0.71778,0.44361 0.67082,1.10813 -0.14803,2.09478 -0.93603,1.12785 -0.91254,1.98085 0.107,3.88589 0.91043,1.70115 1.2861,6.76684 1.23966,16.71591 -0.0367,7.8513 0.18202,15.16769 0.48596,16.25866 1.3089,4.6983 1.96351,-2.5786 1.75268,-19.48358 z m -99.48312,18.5 c 0,-0.825 -0.43588,-1.5 -0.96862,-1.5 -0.53273,0 -0.70959,0.675 -0.39301,1.5 0.31659,0.825 0.75246,1.5 0.96862,1.5 0.21615,0 0.39301,-0.675 0.39301,-1.5 z m -205,-1.05902 c 0,-0.85746 -0.45734,-1.27636 -1.01631,-0.9309 -0.55897,0.34546 -0.75742,1.04702 -0.44098,1.55902 0.85724,1.38704 1.45729,1.12841 1.45729,-0.62812 z m 14.37363,-6.23763 c -0.16614,-3.13684 -0.38575,-5.92835 -0.48804,-6.20335 -0.45675,-1.22798 -1.34624,8.79652 -1.00722,11.35131 0.65027,4.90034 1.81506,0.89015 1.49526,-5.14796 z m 197.83968,4.79665 c -0.24217,-1.65 -0.61423,-3 -0.82681,-3 -0.21257,0 -0.3865,1.35 -0.3865,3 0,1.65 0.37206,3 0.82681,3 0.45474,0 0.62867,-1.35 0.3865,-3 z m 125.34269,-21.75 c -0.6657,-27.4073 -0.74691,-28.7751 -1.76916,-29.79685 -0.72285,-0.72249 -0.78291,52.4153 -0.0608,53.79685 0.2156,0.4125 0.85081,0.75 1.41157,0.75 0.68148,0 0.82022,-8.20699 0.4184,-24.75 z M -26.6026,744.1747 c -0.31922,-0.79773 -0.55618,-0.56078 -0.60416,0.60417 -0.0434,1.05416 0.19292,1.64479 0.52522,1.3125 0.33229,-0.33229 0.36781,-1.1948 0.0789,-1.91667 z m 126.31339,-7.07131 c 0.23382,-12.12021 0.22082,-13.66793 -0.2709,-32.24119 -0.24754,-9.35 -0.77171,-17.75234 -1.16484,-18.67186 -0.39312,-0.91952 -0.25621,-2.52868 0.30424,-3.5759 0.59022,-1.10284 0.72763,-3.94104 0.32655,-6.74496 -0.85152,-5.95285 -2.99188,-7.23783 -3.01214,-1.80835 -0.008,2.09059 -0.0402,6.27607 -0.072,9.30107 -0.0318,3.025 0.13532,8.10494 0.37135,11.28877 0.9854,13.29234 0.75142,45.88101 -0.33723,46.96966 -0.80907,0.80907 -0.64073,1.56128 0.62581,2.79631 0.95294,0.92923 2.03356,1.51809 2.40138,1.30858 0.36781,-0.20951 0.7403,-4.08947 0.82774,-8.62213 z m 24.26799,3.67535 c -0.12952,-2.7041 -0.21946,-8.13854 -0.19986,-12.07654 0.0197,-3.96235 -0.43334,-7.44984 -1.01449,-7.80901 -1.11141,-0.68689 -1.14769,-0.37031 -1.25683,10.96901 -0.1193,12.39529 0.11598,14.69691 1.45669,14.24988 0.81945,-0.27324 1.16888,-2.11023 1.01449,-5.33334 z m 27.54965,-0.45296 c -0.47046,-6.45201 -2.56721,-6.21418 -2.24112,0.25421 0.33727,6.68998 0.24295,6.36624 1.49112,5.11807 0.58527,-0.58527 0.92277,-3.0028 0.75,-5.37228 z m 15.68586,2.20309 c 0,-3.23855 -1.92356,-3.10726 -2.1738,0.14836 -0.13908,1.80949 0.21052,2.67273 0.97871,2.41667 0.6573,-0.2191 1.19509,-1.37337 1.19509,-2.56503 z m -306.7,-1.56392 c 0,-1.86848 0.25973,-4.23098 0.57717,-5.25 0.31745,-1.01901 0.2008,-2.45179 -0.2592,-3.18396 -1.10911,-1.76529 -2.37102,5.97479 -1.52419,9.34882 0.84994,3.38646 1.20622,3.11625 1.20622,-0.91486 z m 246.5842,-6.57069 c 0.0737,-5.11371 -0.27323,-8.03273 -0.95472,-8.03247 -0.95377,3.7e-4 -1.22619,6.66312 -0.60992,14.91708 0.39707,5.31801 1.45589,0.65904 1.56464,-6.88461 z m -283.70109,5.78044 c -0.31922,-0.79773 -0.55618,-0.56078 -0.60416,0.60417 -0.0434,1.05416 0.19292,1.64479 0.52522,1.3125 0.33229,-0.33229 0.36781,-1.1948 0.0789,-1.91667 z m 22,0 c -0.31922,-0.79773 -0.55618,-0.56078 -0.60416,0.60417 -0.0434,1.05416 0.19292,1.64479 0.52522,1.3125 0.33229,-0.33229 0.36781,-1.1948 0.0789,-1.91667 z m 128.53429,-6.06996 c -0.072,-3.9834 -0.15032,-8.12004 -0.17412,-9.19254 -0.0273,-1.22827 -0.39321,-1.59839 -0.98872,-1 -0.9692,0.97387 -1.29121,7.22473 -0.69288,13.45 0.49153,5.11396 0.572,5.39965 1.31244,4.65921 0.37077,-0.37077 0.61524,-3.93327 0.54328,-7.91667 z m -175.0174,4.05746 c -0.93333,-0.93333 -1.2,-0.66667 -1.2,1.2 0,1.86667 0.26667,2.13333 1.2,1.2 0.93333,-0.93333 0.93333,-1.46667 0,-2.4 z m 30.46228,-0.05 c -0.27741,-0.6875 -0.50439,-0.125 -0.50439,1.25 0,1.375 0.22698,1.9375 0.50439,1.25 0.27741,-0.6875 0.27741,-1.8125 0,-2.5 z m 329.62783,1.24862 c 0.28785,-1.10076 0.11534,-1.7492 -0.38337,-1.44098 -0.49871,0.30822 -0.90674,1.20884 -0.90674,2.00138 0,2.06975 0.6795,1.77459 1.29011,-0.5604 z m -176.6306,-9.00085 c 0.08773,-4.94877 -0.21402,-8.99777 -0.67055,-8.99777 -1.28362,0 -1.94547,4.89032 -1.5564,11.5 0.40375,6.85902 0.3311,6.5007 1.31744,6.49777 0.4125,-10e-4 0.82178,-4.05123 0.90951,-9 z m 30.06966,8.39806 c -0.33229,-0.33229 -1.1948,-0.36781 -1.91667,-0.0789 -0.79773,0.31922 -0.56078,0.55618 0.60417,0.60416 1.05416,0.0434 1.64479,-0.19293 1.3125,-0.52522 z M 141.3974,737.1747 c -0.31922,-0.79773 -0.55618,-0.56078 -0.60416,0.60417 -0.0434,1.05416 0.19293,1.64479 0.52522,1.3125 0.33229,-0.33229 0.36781,-1.1948 0.0789,-1.91667 z m -296.64993,-23.17932 c -0.71091,-0.71091 -1.07012,0.19892 -1.1516,2.91682 -0.0651,2.1725 -0.004,4.4 0.13581,4.95 0.13982,0.55 0.34734,3.925 0.46114,7.5 0.35432,11.13051 0.93765,10.02015 1.26968,-2.41682 0.19492,-7.30091 -0.082,-12.31702 -0.71503,-12.95 z M 27.68249,730.1122 c -0.0291,-5.71332 -0.15788,-6.08332 -1.5,-4.30887 -1.79635,2.37499 -1.91108,7.14026 -0.2182,9.06304 0.6875,0.78087 1.3625,1.43687 1.5,1.45779 0.1375,0.0209 0.23569,-2.77446 0.2182,-6.21196 z m 139.0318,5.25 c 0,-0.55 -0.45,-1 -1,-1 -0.55,0 -1,0.45 -1,1 0,0.55 0.45,1 1,1 0.55,0 1,-0.45 1,-1 z m -328.40674,-12.9855 c 0.0691,-6.51818 -0.25419,-12.45047 -0.71848,-13.18287 -1.00259,-1.58155 -1.06228,-1.20682 -1.06228,6.66837 0,14.61002 0.24899,19.77184 0.9213,19.09954 0.40358,-0.40359 0.79034,-6.06685 0.85946,-12.58504 z m -7.59326,7.24061 c 0,-1.21995 -0.28005,-1.26758 -1.5,-0.25511 -0.825,0.68469 -1.5,1.91989 -1.5,2.74489 0,1.21995 0.28005,1.26758 1.5,0.25511 0.825,-0.68469 1.5,-1.91989 1.5,-2.74489 z m 319.94102,-1.00511 c -0.0499,-1.5125 -0.0293,-6.50978 0.0457,-11.10507 0.13029,-7.97745 -0.26641,-10.19858 -1.58584,-8.87915 -0.68008,0.68008 -0.76209,2.83725 -0.55066,14.48422 0.0875,4.82105 0.572,8.25 1.16565,8.25 0.55874,0 0.97505,-1.2375 0.92515,-2.75 z m 9.23598,-1.93608 c 0.62076,-0.76552 0.5826,-1.89459 -0.10761,-3.18426 -0.58816,-1.099 -1.07628,-3.04026 -1.0847,-4.31392 -0.0123,-1.85405 -0.20585,-2.01668 -0.97098,-0.81574 -1.03452,1.62378 -1.15879,10.8688 -0.16802,12.5 0.33406,0.55 0.77887,0.1 0.98846,-1 0.20959,-1.1 0.81387,-2.53373 1.34285,-3.18608 z m -361.51472,0.43608 c -0.27741,-0.6875 -0.50438,-0.125 -0.50438,1.25 0,1.375 0.22697,1.9375 0.50438,1.25 0.27741,-0.6875 0.27741,-1.8125 0,-2.5 z m 344.49481,-2.85437 c -0.83641,-2.26104 -0.84955,-2.25711 -1.53096,0.45787 -0.82518,3.28775 0.2353,5.6455 1.51263,3.36304 0.47409,-0.84716 0.48234,-2.56657 0.0183,-3.82091 z m -372.4641,0.3734 c -0.25354,-0.97297 -0.47766,-0.41903 -0.49804,1.23097 -0.0204,1.65 0.18706,2.44606 0.46099,1.76903 0.27392,-0.67703 0.29059,-2.02703 0.037,-3 z m 13.41452,-3.18335 c -0.81934,-2.23096 -0.95175,-1.89974 -0.96518,2.41432 -0.0131,4.2056 0.13779,4.61641 0.94962,2.58568 0.61291,-1.53315 0.61859,-3.35802 0.0156,-5 z m 7.89249,-7.52666 c 0,-9.16818 -0.39024,-14.68217 -1.06878,-15.10153 -0.74555,-0.46077 -0.97237,3.90495 -0.75,14.43573 0.17533,8.30294 0.65628,15.09863 1.06878,15.10152 0.4125,0.003 0.75,-6.49318 0.75,-14.43572 z M -34.6026,726.1747 c -0.31922,-0.79773 -0.55618,-0.56078 -0.60416,0.60417 -0.0434,1.05416 0.19292,1.64479 0.52522,1.3125 0.33229,-0.33229 0.36781,-1.1948 0.0789,-1.91667 z m 201.45031,-1.0625 c 0.58002,-3.56004 -0.56184,-23.36018 -1.28313,-22.25 -0.54904,0.84506 -1.31989,19.40685 -0.96554,23.25 0.19549,2.12021 1.86099,1.37955 2.24867,-1 z m -336.8289,-2.69351 -0.62997,-2.40901 -0.83921,2.26861 c -0.92574,2.50252 -0.10319,4.75176 1.24477,3.4038 0.46991,-0.46991 0.5709,-1.93844 0.22441,-3.2634 z m 344.69548,2.94351 c 0,-0.55 -0.47656,-1 -1.05902,-1 -0.58246,0 -0.7809,0.45 -0.44098,1 0.33992,0.55 0.81648,1 1.05902,1 0.24254,0 0.44098,-0.45 0.44098,-1 z m -375.68284,-3.61587 c -0.46515,-1.21217 -0.76946,-1.27033 -1.39034,-0.26572 -0.93744,1.5168 -0.17707,3.15429 1.0986,2.36588 0.48798,-0.30159 0.61926,-1.24666 0.29174,-2.10016 z m 62.03346,-1.15138 c -0.32114,-1.22801 -0.9814,-2.23275 -1.46725,-2.23275 -1.03592,0 -1.19862,4.35142 -0.20004,5.35 1.19958,1.19958 2.27188,-0.80527 1.66729,-3.11725 z m 174.14938,2.76725 c 0.33992,-0.55 0.14148,-1 -0.44098,-1 -0.58246,0 -1.05902,0.45 -1.05902,1 0,0.55 0.19844,1 0.44098,1 0.24254,0 0.7191,-0.45 1.05902,-1 z m 70.91655,-1.64313 c 0.34679,-0.90372 0.42487,-1.84878 0.17352,-2.10013 -0.79473,-0.79474 -2.59007,0.80111 -2.59007,2.30228 0,1.96152 1.63888,1.82443 2.41655,-0.20215 z M 11.3974,720.1747 c -0.31922,-0.79773 -0.55618,-0.56078 -0.60416,0.60417 -0.0434,1.05416 0.19293,1.64479 0.52522,1.3125 0.33229,-0.33229 0.36781,-1.1948 0.0789,-1.91667 z m 174.77362,-24.62579 c -0.30641,-14.12769 -0.73407,-34.68671 -0.95035,-45.68671 -0.21628,-11 -0.46377,-20.45 -0.54998,-21 -0.0862,-0.55 -0.10984,-3.475 -0.0525,-6.5 0.096,-5.06674 -0.66331,-46.21817 -0.89492,-48.5 -0.0558,-0.55 -0.0857,-12.475 -0.0663,-26.5 0.0294,-21.32189 -0.18219,-32.19848 -1.06025,-54.5 -0.0433,-1.1 -0.0402,-5.6 0.007,-10 0.0471,-4.4 -0.12338,-12.275 -0.37887,-17.5 -0.25548,-5.225 -0.69033,-25.475 -0.96633,-45 -0.276,-19.525 -0.76555,-45.4 -1.08789,-57.5 -1.44329,-54.17323 -2.29309,-90.35965 -2.67029,-113.70085 -0.19785,-12.24318 -0.66172,-18.07626 -1.50447,-18.91842 -1.39594,-1.39496 -26.97271,-1.66295 -39.03158,-0.40896 -6.12408,0.63684 -7.25,0.52007 -7.25,-0.75194 0,-2.12688 -2.62332,-2.87863 -4.04933,-1.16039 -1.55757,1.87675 -3.38486,1.82724 -5.01409,-0.13586 -0.97152,-1.1706 -2.22584,-1.40118 -4.87245,-0.89567 -1.96027,0.37441 -14.02349,0.8011 -26.80715,0.94818 -13.77451,0.15849 -23.75508,0.68 -24.5,1.28019 -0.79287,0.63882 -15.26735,1.05777 -39.20193,1.13466 -28.9271,0.0929 -38.12639,0.41548 -38.7084,1.35718 -0.96397,1.55974 -0.18104,4.80844 2.80192,11.62631 1.29329,2.95594 2.35374,6.78094 2.35655,8.5 0.003,1.71906 1.11378,4.92557 2.46879,7.12557 1.35502,2.2 2.47772,4.87042 2.49488,5.93428 0.0172,1.06385 0.94998,3.83219 2.07291,6.15187 1.57148,3.24623 3.25669,4.83232 7.31703,6.88667 4.78603,2.42151 5.42404,3.14944 6.87861,7.84813 3.09961,10.01262 3.76266,13.46713 3.76266,19.60371 0,5.33625 0.40429,6.70309 2.92351,9.88398 2.8008,3.53641 2.9118,4.06547 2.64445,12.60367 -0.24767,7.90951 0.0141,9.50593 2.32648,14.18819 2.79704,5.6636 5.49044,6.87176 8.53413,3.82807 1.92185,-1.92185 1.92298,-1.67587 -0.0285,-6.21069 -2.4055,-5.58991 -2.07254,-21.03245 0.56003,-25.97403 4.42735,-8.31055 8.84942,-11.09274 18.98106,-11.94214 11.92882,-1.00007 20.596,4.24931 22.9233,13.88376 1.37876,5.70775 -0.20926,14.35459 -4.22412,23.00045 -1.4522,3.12726 -2.64036,5.88517 -2.64036,6.12868 0,0.70733 5.18288,2.54926 9.06371,3.22112 3.87906,0.67156 3.56579,0.22356 10.91326,15.60674 2.27034,4.75336 4.8918,9.29364 5.82546,10.08952 0.93366,0.79588 4.33836,2.49317 7.566,3.77175 6.47238,2.56394 11.63157,6.38581 11.63157,8.61655 0,0.79337 0.675,1.70151 1.5,2.01809 0.825,0.31659 1.5,1.32493 1.5,2.24077 0,0.91585 1.26375,3.2302 2.80834,5.14302 5.13367,6.35754 8.83173,13.41533 9.911,18.91525 1.10971,5.65506 1.03016,6.05819 -2.97241,15.06259 -2.30234,5.17948 -3.07949,7.14409 -4.74693,12 -0.66101,1.925 -1.5786,4.4 -2.03908,5.5 -0.46048,1.1 -1.53059,4.475 -2.37802,7.5 -0.84743,3.025 -2.41628,6.9175 -3.48634,8.65001 -1.88164,3.04654 -9.93349,9.34999 -11.9434,9.34999 -0.54257,0 -1.16279,0.52888 -1.37825,1.17528 -0.59999,1.79995 -15.81662,1.66155 -19.38739,-0.17634 -2.93015,-1.50816 -7.38407,-5.87925 -7.3863,-7.24894 -0.003,-2.11737 -2.17944,-0.18099 -5.05686,4.5 -1.77495,2.8875 -4.00153,5.79458 -4.94795,6.46017 -3.40239,2.39281 -4.43566,6.92007 -3.11336,13.6412 0.66531,3.38175 1.60897,9.29863 2.09701,13.14863 0.48804,3.85 1.40946,9.025 2.04758,11.5 0.63813,2.475 1.28564,6.53229 1.4389,9.0162 0.15327,2.48391 0.58553,6.33254 0.96059,8.55251 0.56578,3.34882 1.8857,41.23604 1.66984,47.93129 -0.0355,1.1 -0.28847,9.34169 -0.56224,18.31488 2.040833,23.82387 1.580253,33.87734 -1.17645,58.06502 -0.51435,4.33922 -0.36888,5.29246 0.75201,4.92785 0.76434,-0.24863 2.16459,-2.07276 3.11166,-4.05361 2.09446,-4.3807 5.15789,-5.62535 7.84971,-3.18929 1.06059,0.95982 1.94474,2.46288 1.96478,3.34014 0.02,0.87725 1.70755,2.86526 3.75,4.41779 4.6204,3.5121 8.42836,3.04221 12.22776,-1.50885 1.76148,-2.10998 3.18183,-2.95268 4.27171,-2.53446 1.88394,0.72294 6.71409,9.74385 6.71409,12.5394 0,1.03695 1.10694,3.41441 2.45986,5.28325 1.35292,1.86883 3.37939,5.07033 4.50327,7.11444 1.12387,2.04411 2.93727,4.19495 4.02979,4.77965 1.09251,0.58469 2.65192,2.3501 3.46537,3.92312 0.81344,1.57303 3.42186,4.82219 5.79649,7.22036 2.37463,2.39817 5.34438,5.82281 6.59946,7.61031 1.25507,1.7875 2.68874,3.25 3.18592,3.25 0.49718,0 1.6391,-2.5875 2.5376,-5.75 2.31288,-8.14083 3.41744,-9.05223 7.40292,-6.1083 l 3.19265,2.3583 1.84892,-2.28124 c 1.01691,-1.25468 2.35981,-4.74218 2.98423,-7.75 0.97995,-4.72028 1.45169,-5.46876 3.44679,-5.46876 2.5279,0 10.54675,7.31244 10.54675,9.61765 0,0.76029 0.39459,1.38235 0.87686,1.38235 0.91989,0 5.12314,9.0389 5.12314,11.01708 0,0.63048 1.54886,3.0365 3.4419,5.34671 1.89305,2.31022 3.91721,5.45053 4.49813,6.97848 2.50362,6.58503 3.06629,1.18451 2.5167,-24.15556 z m -43.85256,22.08412 c -1.01652,-1.01651 -1.85525,0.51389 -1.02122,1.86338 0.63003,1.01942 0.86558,1.02021 1.2043,0.004 0.2316,-0.69479 0.14921,-1.53513 -0.18308,-1.86742 z m -18.60417,-6.32985 c 0,-3.7847 -0.37536,-5.82703 -1,-5.44098 -1.77353,1.0961 -1.17041,11.5 0.66667,11.5 0.18333,0 0.33333,-2.72656 0.33333,-6.05902 z m -294.43365,-2.70797 c -1.06709,-1.06709 -1.28209,0.26977 -0.68624,4.26699 l 0.59628,4 0.32815,-3.85032 c 0.18048,-2.11768 0.0733,-4.10518 -0.23819,-4.41667 z m 311.82666,6.1852 c 0.85017,-2.21551 0.78558,-2.41821 -0.77057,-2.41821 -2.09867,0 -4.03925,2.67176 -2.41418,3.32381 2.14345,0.86004 2.55177,0.74393 3.18475,-0.9056 z m -342.39301,-3.58488 c 0,-2.29166 -0.25911,-3.90755 -0.5758,-3.59086 -0.9589,0.9589 -1.2086,7.75753 -0.28492,7.75753 0.4734,0 0.86072,-1.875 0.86072,-4.16667 z m 54.4799,-3.71606 c -0.37063,-10.1266 -2.17326,-10.37877 -2.29039,-0.32041 -0.069,5.92515 0.2368,7.86981 1.23753,7.86981 1.01259,0 1.26336,-1.79814 1.05286,-7.5494 z m 7.28418,3.45615 c -0.10596,-2.43462 -0.54623,-4.20806 -0.97837,-3.94098 -1.142,0.70579 -0.96559,8.36756 0.19265,8.36756 0.53811,0 0.89168,-1.99196 0.78572,-4.42658 z m -82.76408,1.9856 c 0,-0.24254 -0.45,-0.7191 -1,-1.05902 -0.55,-0.33992 -1,-0.14148 -1,0.44098 0,0.58246 0.45,1.05902 1,1.05902 0.55,0 1,-0.19844 1,-0.44098 z m 67.63875,-4.55902 c -0.11102,-4.23402 -1.63875,-5.70864 -1.63875,-1.58179 0,2.25759 0.88069,5.58179 1.4788,5.58179 0.14566,0 0.21763,-1.8 0.15995,-4 z m 103.75426,2.41821 c 1.22676,-3.19689 0.67284,-10.41821 -0.79914,-10.41821 -1.05713,0 -1.39456,1.48923 -1.35949,6 0.0454,5.83425 0.92464,7.63394 2.15863,4.41821 z m 79.60699,0.0228 c 0,-0.85746 -0.45,-1.2809 -1,-0.94098 -0.55,0.33992 -1,1.04148 -1,1.55902 0,0.51754 0.45,0.94098 1,0.94098 0.55,0 1,-0.70156 1,-1.55902 z m 22.36163,-0.94098 c -0.31659,-0.825 -0.75246,-1.5 -0.96862,-1.5 -0.21615,0 -0.39301,0.675 -0.39301,1.5 0,0.825 0.43588,1.5 0.96862,1.5 0.53273,0 0.70959,-0.675 0.39301,-1.5 z m 107.46655,-2.90927 c -0.1805,-1.4591 -0.77818,-2.59392 -1.32818,-2.52182 -0.55,0.0721 -0.81158,0.64859 -0.58128,1.28109 0.2303,0.6325 0.38759,2.20771 0.34953,3.50047 -0.0451,1.53279 0.27126,2.01002 0.90946,1.37182 0.53825,-0.53825 0.83097,-2.17246 0.65047,-3.63156 z m -380.82818,-1.64975 c 0,-1.753 -0.4204,-2.79919 -0.9847,-2.45044 -1.14011,0.70463 -0.96324,5.50946 0.20281,5.50946 0.43004,0 0.78189,-1.37656 0.78189,-3.05902 z m 51.97503,-1.36595 c -1.34507,-1.34507 -2.34543,0.0173 -1.54477,2.10382 0.57449,1.49711 0.81466,1.54289 1.58189,0.30148 0.54563,-0.88283 0.5309,-1.83728 -0.0371,-2.4053 z m 8.15825,-9.69512 c -0.009,-15.11721 0.0482,-14.46142 -1.15994,-13.25325 -1.15631,1.15631 -1.25186,2.81043 -0.96573,16.71826 0.28598,13.90044 2.13438,10.8874 2.12567,-3.46501 z m 253.1837,11.51164 c -0.10066,-0.54432 -0.4619,-3.42884 -0.80276,-6.41004 -0.67498,-5.9035 -0.91088,-6.47243 -2.32206,-5.60027 -0.57545,0.35564 -0.59897,2.4118 -0.0606,5.29369 0.48418,2.5917 0.6092,5.56644 0.27781,6.61054 -0.46599,1.46822 -0.1841,1.80744 1.24405,1.49706 1.01561,-0.22072 1.7642,-0.84666 1.66354,-1.39098 z M -216.6026,703.1747 c -0.31922,-0.79773 -0.55618,-0.56078 -0.60416,0.60417 -0.0434,1.05416 0.19293,1.64479 0.52522,1.3125 0.33229,-0.33229 0.36782,-1.1948 0.079,-1.91667 z m 174.31689,1.74652 c 0,-0.24254 -0.45,-0.7191 -1,-1.05902 -0.55,-0.33992 -1,-0.14148 -1,0.44098 0,0.58246 0.45,1.05902 1,1.05902 0.55,0 1,-0.19844 1,-0.44098 z m -97.81954,-7.9057 -0.82661,-3.15332 -0.69845,4.31067 c -0.79695,4.91868 0.21523,7.77134 1.51282,4.26362 0.46137,-1.24721 0.46688,-3.68664 0.0122,-5.42097 z m 245.5268,2.10834 c -0.23919,-1.24391 -0.44398,-0.46166 -0.45508,1.73834 -0.0111,2.2 0.18461,3.21775 0.4349,2.26166 0.25029,-0.95609 0.25937,-2.75609 0.0202,-4 z m -275.70726,-1.26166 c 0,-0.825 -0.43588,-1.5 -0.96862,-1.5 -0.53273,0 -0.70959,0.675 -0.39301,1.5 0.31659,0.825 0.75246,1.5 0.96862,1.5 0.21615,0 0.39301,-0.675 0.39301,-1.5 z m 22.73952,-3.75 c 0.72738,-2.07133 0.93687,-6.87668 0.57763,-13.25 -0.55363,-9.82212 -0.81892,-11.33157 -1.81624,-10.33424 -0.70156,0.70156 -1.15663,26.83424 -0.46729,26.83424 0.31053,0 1.07819,-1.4625 1.7059,-3.25 z m -54.13535,-0.47917 c -1.01652,-1.01651 -1.85525,0.51389 -1.02122,1.86338 0.63003,1.01942 0.86558,1.02021 1.2043,0.004 0.2316,-0.69479 0.14921,-1.53513 -0.18308,-1.86742 z m -8,-3 c -1.01652,-1.01651 -1.85525,0.51389 -1.02122,1.86338 0.63003,1.01942 0.86558,1.02021 1.2043,0.004 0.2316,-0.69479 0.14921,-1.53513 -0.18308,-1.86742 z m 277.39583,0.67015 c 0,-1.13246 -0.45,-1.7809 -1,-1.44098 -0.55,0.33992 -1,1.26648 -1,2.05902 0,0.79254 0.45,1.44098 1,1.44098 0.55,0 1,-0.92656 1,-2.05902 z m 38.2608,-2.05168 c -0.74384,-2.84446 -1.26263,-2.27769 -1.24549,1.3607 0.0104,2.20964 0.29129,2.81443 0.87743,1.8893 0.47417,-0.74838 0.6398,-2.21088 0.36806,-3.25 z m -246.2608,-7.94832 c 0,-5.74593 -0.38797,-9.81924 -0.90482,-9.49981 -0.49765,0.30757 -0.66627,2.33768 -0.37472,4.51136 0.29155,2.17369 0.18176,4.7611 -0.24398,5.74981 -1.25467,2.9138 -0.89522,9.29766 0.52352,9.29766 0.60039,0 1,-4.01967 1,-10.05902 z M 81.644,689.6122 c -0.0387,-0.9625 -0.45702,-2.65 -0.92971,-3.75 -0.68942,-1.60437 -0.87333,-1.2582 -0.92971,1.75 -0.0387,2.0625 0.37971,3.75 0.92971,3.75 0.55,0 0.96837,-0.7875 0.92971,-1.75 z m -297.96034,-6.75 c 0,-3.59295 -0.27279,-4.57788 -0.96937,-3.5 -0.53316,0.825 -0.96937,3.75 -0.96937,6.5 0,3.59295 0.27279,4.57788 0.96937,3.5 0.53316,-0.825 0.96937,-3.75 0.96937,-6.5 z m 60.50787,-2.30841 c -0.61855,-1.51223 -0.77346,-1.47953 -1.46099,0.30841 -0.44673,1.16172 -0.29695,2.5892 0.35733,3.40573 0.94852,1.18371 1.17926,1.135 1.46099,-0.30842 0.18402,-0.94277 0.0232,-2.47535 -0.35733,-3.40572 z m 245.50745,-2.60826 c 0.0201,-5.13184 -0.54606,-4.3203 -1.33705,1.91667 -0.4329,3.41342 -0.3238,4.52403 0.34381,3.5 0.53786,-0.825 0.98482,-3.2625 0.99324,-5.41667 z m -298.98469,2.85765 c 0,-0.79254 -0.35357,-1.44098 -0.78571,-1.44098 -0.43215,0 -0.78572,0.86696 -0.78572,1.92658 0,1.05962 0.35357,1.70806 0.78572,1.44098 0.43214,-0.26707 0.78571,-1.13404 0.78571,-1.92658 z m 15.38341,-2.19098 c -0.27145,-2.6125 -0.41623,-7.225 -0.32174,-10.25 0.18753,-6.00342 0.10093,-37.51227 -0.14728,-53.59022 -0.0955,-6.18583 0.30472,-10.95068 1.03431,-12.31392 0.79294,-1.48163 0.86034,-2.62103 0.20197,-3.41432 -1.32274,-1.59379 -2.19399,-25.79039 -2.67107,-74.18154 -0.422,-42.80473 -1.15353,-68.50726 -1.97313,-69.32686 -1.46571,-1.46571 -1.85058,2.34341 -1.72661,17.08852 0.11325,13.47135 0.8089,34.21383 1.2824,38.23834 0.0647,0.55 0.12415,6.625 0.13209,13.5 0.0544,47.08919 1.06765,112.61074 2.31975,150 0.30806,9.19916 0.27655,9 1.42437,9 0.52218,0 0.71955,-2.10702 0.44494,-4.75 z m 275.02973,2.11576 c 0.71802,-1.87114 -0.26783,-8.15792 -1.38781,-8.85011 -0.41137,-0.25424 -0.71235,2.00073 -0.66883,5.01105 0.0789,5.46001 0.86882,6.93448 2.05664,3.83906 z m -243.41314,-8.92478 c 0,-5.28247 -0.29268,-6.44098 -1.62723,-6.44098 -1.38054,0 -1.5267,0.79589 -0.96412,5.25 0.36471,2.8875 0.6742,6.04723 0.68775,7.02161 0.0135,0.97439 0.44741,1.51033 0.96412,1.19099 0.51671,-0.31935 0.93948,-3.47908 0.93948,-7.02162 z m -38.8055,-3.98128 c 0.4891,-4.18955 -1.6269,-6.85735 -2.54322,-3.20643 -0.65283,2.60107 0.18036,6.74673 1.35595,6.74673 0.42568,0 0.95995,-1.59314 1.18727,-3.5403 z m 60.46778,-0.7097 c -0.27741,-0.6875 -0.50439,-0.125 -0.50439,1.25 0,1.375 0.22698,1.9375 0.50439,1.25 0.27741,-0.6875 0.27741,-1.8125 0,-2.5 z m -67.99513,-1.41369 c -0.80145,-4.93873 -2.66715,-6.77012 -2.66715,-2.6181 0,3.82294 0.87595,6.28179 2.23783,6.28179 0.62035,0 0.78955,-1.44387 0.42932,-3.66369 z m 60.58216,-0.81244 c -0.65596,-3.43145 -1.24931,-3.17728 -1.24931,0.53515 0,1.68246 0.38965,2.8182 0.86589,2.52386 0.47624,-0.29433 0.64878,-1.67089 0.38342,-3.05901 z m -36.84977,-14.1087 c -0.12762,-17.67791 -1.02023,-35.99241 -1.81702,-37.28165 -0.33833,-0.54743 -0.24414,-1.22462 0.20931,-1.50486 1.28991,-0.79721 0.53298,-64.15323 -0.79613,-66.63669 -0.8297,-1.55032 -0.81679,-3.00404 0.05,-5.63046 0.65672,-1.98988 0.85937,-4.92476 0.4627,-6.70103 -0.60383,-2.70397 -1.56856,-73.94496 -1.57978,-116.66048 -0.002,-7.425 -0.38551,-19.575 -0.85234,-27 -0.46684,-7.425 -0.57496,-13.95 -0.24027,-14.5 0.33468,-0.55 0.621,-6.39128 0.63625,-12.98061 0.024,-10.36486 0.25223,-12.02461 1.6923,-12.30687 2.26412,-0.44378 2.99296,2.36098 2.86911,11.04108 -0.12179,8.53632 -0.14807,7.34853 0.46999,21.2464 0.26905,6.05 0.47354,16.7375 0.45442,23.75 -0.0284,10.41112 0.22779,12.75 1.39658,12.75 1.64611,0 2.95138,-2.69579 2.02838,-4.18924 -0.74794,-1.2102 -1.1429,-12.99576 -1.83679,-54.81076 -0.40513,-24.41375 -0.80657,-31.5 -1.78449,-31.5 -0.75691,0 -1.14595,1.00226 -0.97231,2.50492 0.33138,2.86783 -1.98398,6.61092 -3.50706,5.66961 -1.46723,-0.9068 -2.46266,-16.17631 -2.37902,-36.49347 0.0429,-10.4233 -0.32453,-17.82332 -0.90273,-18.18067 -0.60093,-0.37139 -0.64215,-1.76356 -0.10743,-3.62802 0.47721,-1.66396 0.63138,-12.10345 0.34258,-23.19888 -0.41775,-16.05021 -0.8021,-20.17349 -1.88043,-20.17349 -0.74545,0 -1.37493,0.3375 -1.39885,0.75 -0.33766,5.82316 0.71584,92.18634 1.61325,132.25 0.30183,13.475 0.72227,44.075 0.93431,68 0.5877,66.31138 0.70625,73.43286 1.23764,74.34377 0.27073,0.46407 0.67495,21.38907 0.89828,46.5 0.75138,84.48606 0.92936,91.93241 2.23502,93.50563 0.83444,1.00543 0.88768,1.67923 0.16784,2.12412 -0.57985,0.35836 -0.97867,2.65039 -0.88626,5.09339 0.0924,2.443 -0.12612,4.73595 -0.48561,5.09545 -0.91605,0.91604 1.39194,3.48366 2.72911,3.03611 0.73613,-0.24638 1.06669,-4.97042 0.99945,-14.2833 z m 13.97563,1.53144 c -0.46642,-5.59281 -0.94369,-7.64204 -1.4568,-6.25498 -0.41971,1.13459 -0.37566,3.78078 0.0979,5.88043 0.47355,2.09965 0.63457,4.18391 0.35783,4.63169 -0.58354,0.94418 0.58968,5.16582 1.25165,4.50385 0.24372,-0.24372 0.13097,-4.18616 -0.25056,-8.76099 z m 8.01727,7.30339 c 0.28997,-0.9625 0.30669,-8.275 0.0372,-16.25 -0.4269,-12.63143 -1.1916,-58.03961 -1.3697,-81.33333 -0.0416,-5.4411 -0.41141,-7.71616 -1.21093,-7.44966 -0.79811,0.26604 -1.12332,4.50759 -1.06065,13.83334 0.0497,7.39731 0.15745,13.44965 0.23942,13.44965 0.19378,0 0.99503,58.31187 0.90002,65.5 -0.04,3.025 -0.0951,6.85 -0.12239,8.5 -0.0758,4.57734 0.11328,5.5 1.12725,5.5 0.51294,0 1.16986,-0.7875 1.45983,-1.75 z m 7.79359,-2.9217 c -0.13754,-3.65847 -2.06306,-7.23318 -2.30451,-4.2783 -0.28742,3.51739 0.97388,9.42793 1.82935,8.57247 0.33744,-0.33744 0.55126,-2.26982 0.47516,-4.29417 z m 15.04252,0.90573 c 0.25399,-0.97128 0.16169,-2.62154 -0.20512,-3.66724 -0.36682,-1.04571 -0.54254,-5.20102 -0.39051,-9.23404 0.15204,-4.03301 -0.0967,-7.33275 -0.55284,-7.33275 -0.93034,0 -1.98524,16.0453 -1.29298,19.66661 0.52788,2.76144 1.79093,3.05499 2.44145,0.56742 z m -69.22855,-0.23403 c 0,-0.55 -0.19844,-1 -0.44098,-1 -0.24254,0 -0.7191,0.45 -1.05902,1 -0.33992,0.55 -0.14148,1 0.44098,1 0.58246,0 1.05902,-0.45 1.05902,-1 z m 32,-1 c 0,-0.55 -0.19844,-1 -0.44098,-1 -0.24254,0 -0.7191,0.45 -1.05902,1 -0.33992,0.55 -0.14148,1 0.44098,1 0.58246,0 1.05902,-0.45 1.05902,-1 z m 29.21193,-19.5 c -0.40052,-6.83168 -2.0003,-12.46054 -2.27369,-8 -0.35386,5.7733 0.50625,27.06968 1.15104,28.5 0.6175,1.36978 1.4807,-14.39263 1.12265,-20.5 z m -54.1065,10.31741 c -0.0821,-3.99368 -0.6069,-7.71888 -1.16624,-8.27822 -0.68931,-0.68931 -0.87189,1.71816 -0.56665,7.47192 0.52903,9.97264 0.45942,9.49027 1.2548,8.69488 0.34504,-0.34504 0.56018,-3.8949 0.47809,-7.88858 z m -21.42232,2.99509 c -0.31922,-0.79773 -0.55618,-0.56078 -0.60416,0.60417 -0.0434,1.05416 0.19293,1.64479 0.52522,1.3125 0.33229,-0.33229 0.36782,-1.1948 0.079,-1.91667 z m 7.27361,-7.66844 c -0.35872,-15.88978 -1.18922,-29.14406 -1.82617,-29.14455 -0.82776,-6.4e-4 -0.52331,13.55597 0.33565,14.9458 0.36459,0.58992 0.3581,2.03289 -0.0144,3.2066 -0.37252,1.17371 -0.66074,4.20719 -0.64048,6.74106 0.10386,12.9903 0.21736,14.20734 1.26463,13.5601 0.6595,-0.4076 1.0004,-4.01052 0.88078,-9.30901 z m 60.57099,2.19219 c -0.56663,-3.77858 -0.91178,-4.40133 -1.67929,-3.02987 -0.64765,1.15728 -0.55386,2.86623 0.28455,5.18481 1.66887,4.61515 2.27057,3.68549 1.39474,-2.15494 z m 23.57226,-4.74299 c -0.0177,-4.77101 -0.24588,-9.02034 -0.50707,-9.44294 -0.26118,-0.4226 -0.56735,-3.89181 -0.68039,-7.70934 -0.11303,-3.81754 -0.584,-7.84098 -1.04659,-8.94098 -0.85096,-2.02349 -0.89596,32.80177 -0.0456,35.31722 1.14461,3.38599 2.309,-1.32532 2.27968,-9.22396 z m -45.09997,7.40674 c 0,-0.55 -0.45,-1 -1,-1 -0.55,0 -1,0.45 -1,1 0,0.55 0.45,1 1,1 0.55,0 1,-0.45 1,-1 z m 5.66228,-7.25 c -0.27741,-0.6875 -0.50439,-0.125 -0.50439,1.25 0,1.375 0.22698,1.9375 0.50439,1.25 0.27741,-0.6875 0.27741,-1.8125 0,-2.5 z m -51.16228,-0.75 c 0.33992,-0.55 0.14148,-1 -0.44098,-1 -0.58246,0 -1.05902,0.45 -1.05902,1 0,0.55 0.19844,1 0.44098,1 0.24254,0 0.7191,-0.45 1.05902,-1 z m 67.07012,-9.51254 c -0.35389,-12.85511 -1.57012,-13.3618 -1.57012,-0.65413 0,5.59167 0.4122,10.16667 0.91599,10.16667 0.50881,0 0.79959,-4.22855 0.65413,-9.51254 z m -54.87713,1.78157 c -0.25354,-0.97297 -0.47766,-0.41903 -0.49804,1.23097 -0.0204,1.65 0.18706,2.44606 0.46099,1.76903 0.27392,-0.67703 0.29059,-2.02703 0.037,-3 z m 8.30701,-3.9357 c 0,-8.50113 -0.70683,-9.40096 -1.39472,-1.77556 -0.41499,4.60022 0.0994,9.44223 1.00313,9.44223 0.21537,0 0.39159,-3.45 0.39159,-7.66667 z m 24.23505,3.4493 c -1.03275,-2.14368 -1.10381,-2.07262 -1.16737,1.16737 -0.0516,2.62976 0.20986,3.17246 1.09969,2.28263 0.86315,-0.86315 0.88079,-1.76224 0.0677,-3.45 z m -45.23505,-1.34165 c 0,-0.85746 -0.45,-1.2809 -1,-0.94098 -0.55,0.33992 -1,1.04148 -1,1.55902 0,0.51754 0.45,0.94098 1,0.94098 0.55,0 1,-0.70156 1,-1.55902 z m 74.52481,-18.69098 c -0.23355,-8.3875 -0.45406,-15.925 -0.49003,-16.75 -0.0488,-1.12017 -0.2651,-1.18556 -0.85403,-0.25821 -0.43375,0.68298 -0.68647,5.40798 -0.56161,10.5 0.12487,5.09201 0.26164,12.07071 0.30395,15.50821 0.0423,3.4375 0.51553,6.25 1.05163,6.25 0.6089,0 0.81535,-5.7233 0.55009,-15.25 z m -29.54978,10.82503 c -1.34507,-1.34507 -2.34543,0.0173 -1.54477,2.10382 0.57449,1.49711 0.81466,1.54289 1.58189,0.30148 0.54563,-0.88283 0.5309,-1.83728 -0.0371,-2.4053 z m -31.92492,-11.65765 -0.62882,-4.41738 -0.64903,5.1276 c -0.35697,2.82018 -0.36371,6.19518 -0.015,7.5 0.60406,2.26015 0.66452,2.22655 1.27786,-0.71022 0.35408,-1.69544 0.36082,-5.07044 0.015,-7.5 z m 32.44989,9.08262 c 0.33992,-0.55 0.14148,-1 -0.44098,-1 -0.58246,0 -1.05902,0.45 -1.05902,1 0,0.55 0.19844,1 0.44098,1 0.24254,0 0.7191,-0.45 1.05902,-1 z m -24.5552,-5.80146 c -0.0169,-2.5842 0.0213,-5.82354 0.0849,-7.19854 0.0636,-1.375 -0.12906,-13.075 -0.42812,-26 -0.29907,-12.925 -0.57012,-32.79348 -0.60233,-44.15218 -0.0442,-15.59266 -0.37484,-20.91466 -1.34951,-21.72356 -1.03012,-0.85493 -1.24453,-0.0387 -1.06128,4.04018 0.4289,9.54604 0.87242,54.28766 0.63776,64.33556 -0.12844,5.5 -0.0394,14.05 0.198,19 0.23735,4.95 0.464,10.93906 0.50367,13.30902 0.043,2.56668 0.47153,4.06217 1.05991,3.69854 0.54327,-0.33577 0.97393,-2.72483 0.95702,-5.30902 z m 30.73831,2.61396 c -0.31922,-0.79773 -0.55618,-0.56078 -0.60416,0.60417 -0.0434,1.05416 0.19292,1.64479 0.52522,1.3125 0.33229,-0.33229 0.36781,-1.1948 0.0789,-1.91667 z m 29.50022,-0.0292 c -0.71756,-0.71756 -1.18333,-0.7766 -1.18333,-0.15 0,1.33478 1.18261,2.51739 1.85,1.85 0.28417,-0.28416 -0.0158,-1.04916 -0.66667,-1.7 z m 0.49978,-3.97083 c -0.31922,-0.79773 -0.55618,-0.56078 -0.60416,0.60417 -0.0434,1.05416 0.19292,1.64479 0.52522,1.3125 0.33229,-0.33229 0.36781,-1.1948 0.0789,-1.91667 z m -76.54908,-3.46612 c -0.94083,-1.61863 -1.07696,-1.48249 -1.10362,1.10362 -0.0222,2.15133 0.26838,2.65121 1.07322,1.84638 0.79094,-0.79095 0.79956,-1.62674 0.0304,-2.95 z m 39.86597,-3.34635 c 0,-1.1 -0.45,-2 -1,-2 -0.55,0 -1,0.9 -1,2 0,1.1 0.45,2 1,2 0.55,0 1,-0.9 1,-2 z m 21.98469,-2.80902 c -0.0132,-1.45727 -0.14929,-1.48367 -0.98469,-0.19098 -1.2656,1.95837 -1.2656,3.28218 0,2.5 0.55,-0.33992 0.99311,-1.37898 0.98469,-2.30902 z m -14.64956,-0.36452 c 0.65299,-2.49704 -0.0432,-4.12495 -1.40423,-3.28375 -1.18471,0.73219 -1.22587,5.45729 -0.0475,5.45729 0.48585,0 1.13914,-0.97809 1.45176,-2.17354 z m -38.35044,-2.63548 c -0.008,-1.48004 -0.45153,-3.36598 -0.98469,-4.19098 -0.70019,-1.08346 -0.97363,-0.16458 -0.98469,3.30902 -0.009,2.95477 0.37027,4.57071 0.98469,4.19098 0.55,-0.33992 0.99311,-1.82898 0.98469,-3.30902 z m 31.01531,-2.63196 c 0,-0.79254 -0.45,-1.7191 -1,-2.05902 -0.55,-0.33992 -1,0.30852 -1,1.44098 0,1.13246 0.45,2.05902 1,2.05902 0.55,0 1,-0.64844 1,-1.44098 z m 21.98469,-4.97569 c 0.0204,-2.55844 -0.55192,-1.76026 -1.37439,1.91667 -0.49007,2.19092 -0.3973,2.59546 0.34401,1.5 0.55829,-0.825 1.02196,-2.3625 1.03038,-3.41667 z m 13.70464,-1.33333 c -0.25153,-0.9625 -0.45733,-0.175 -0.45733,1.75 0,1.925 0.2058,2.7125 0.45733,1.75 0.25152,-0.9625 0.25152,-2.5375 0,-3.5 z m -67.76376,-7.75 c -0.51484,-1.28903 -0.77684,0.31064 -0.73702,4.5 0.0596,6.27388 0.0874,6.34346 0.7988,2 0.40536,-2.475 0.37756,-5.4 -0.0618,-6.5 z m 61.07443,3.94098 c 0,-3.45136 -0.37914,-5.32469 -1,-4.94098 -1.59462,0.98553 -1.04461,10.5 0.60699,10.5 0.21615,0 0.39301,-2.50156 0.39301,-5.55902 z m -82.33772,0.30902 c -0.27741,-0.6875 -0.50438,-0.125 -0.50438,1.25 0,1.375 0.22697,1.9375 0.50438,1.25 0.27741,-0.6875 0.27741,-1.8125 0,-2.5 z m 13.03071,-1.48097 c -0.25354,-0.97297 -0.47766,-0.41903 -0.49804,1.23097 -0.0204,1.65 0.18706,2.44606 0.46099,1.76903 0.27392,-0.67703 0.29059,-2.02703 0.037,-3 z m 62.30701,-3.46903 c 0,-6.22902 -1.89342,-5.42681 -2.48659,1.05352 -0.28464,3.10959 -0.0212,4.14648 1.05352,4.14648 1.06037,0 1.43307,-1.35238 1.43307,-5.2 z m -75.31689,0.0125 c -0.31922,-0.79773 -0.55618,-0.56078 -0.60416,0.60417 -0.0434,1.05416 0.19293,1.64479 0.52522,1.3125 0.33229,-0.33229 0.36782,-1.1948 0.079,-1.91667 z m 52.91827,-3.77539 c 0.18825,-2.22041 -0.0458,-4.03711 -0.52015,-4.03711 -0.93678,0 -1.89792,6.04993 -1.2635,7.95319 0.66243,1.9873 1.42512,0.3128 1.78365,-3.91608 z m 29.82264,-3.28711 c 0.38088,-2.14262 0.26441,-3.75 -0.27172,-3.75 -1.28206,0 -2.1523,2.53992 -2.1523,6.28179 0,4.02797 1.54476,2.41453 2.42402,-2.53179 z m -82.15638,-1.83453 c -0.41445,-1.58486 -0.74789,-1.76464 -1.39106,-0.75 -1.23186,1.94331 -1.06528,2.83453 0.5298,2.83453 0.93306,0 1.22292,-0.70155 0.86126,-2.08453 z m 51.37073,-3.41547 c -0.31658,-0.825 -0.11317,-1.5 0.45203,-1.5 0.5652,0 0.71983,-0.49804 0.34362,-1.10676 -0.47683,-0.77153 -0.94441,-0.69581 -1.54371,0.25 -1.20609,1.90346 -1.09635,3.85676 0.21668,3.85676 0.60884,0 0.84797,-0.675 0.53138,-1.5 z m 30.34632,-3.62756 c 0.008,-0.89515 -0.55614,-2.10181 -1.25458,-2.68147 -0.99967,-0.82965 -1.18767,-0.19171 -0.88348,2.99804 0.2647,2.77556 0.65989,3.62024 1.25458,2.68147 0.47749,-0.75377 0.87506,-2.10288 0.88348,-2.99804 z m -69.27896,-3.12244 c -0.23835,-1.2375 -0.43337,-0.225 -0.43337,2.25 0,2.475 0.19502,3.4875 0.43337,2.25 0.23836,-1.2375 0.23836,-3.2625 0,-4.5 z m 45.97738,0.0625 c -0.31922,-0.79773 -0.55618,-0.56078 -0.60416,0.60417 -0.0434,1.05416 0.19292,1.64479 0.52522,1.3125 0.33229,-0.33229 0.36781,-1.1948 0.0789,-1.91667 z m -59.12393,-8.58665 c -1.04724,-1.04724 -1.20742,0.26864 -0.64202,5.27415 l 0.56477,5 0.31822,-4.85749 c 0.17502,-2.67161 0.0666,-5.10911 -0.24097,-5.41666 z m 21.1031,4.52415 c -0.27741,-0.6875 -0.50438,-0.125 -0.50438,1.25 0,1.375 0.22697,1.9375 0.50438,1.25 0.27741,-0.6875 0.27741,-1.8125 0,-2.5 z m 32.16639,-5.58856 c 0.14735,-5.4852 -0.14085,-7.06726 -1.37359,-7.5403 -1.33459,-0.51213 -1.53336,0.44756 -1.37532,6.6401 0.10161,3.98132 0.38132,7.5836 0.62159,8.00507 1.13047,1.98306 1.95739,-0.7787 2.12732,-7.10487 z m 6.17133,1.83856 c 0,-3.3 -0.39752,-6 -0.88337,-6 -1.25764,0 -2.11336,3.88399 -1.00644,4.5681 0.50734,0.31355 0.64773,1.01458 0.31198,1.55783 -0.63934,1.03447 0.26438,5.87407 1.09688,5.87407 0.26452,0 0.48095,-2.7 0.48095,-6 z m -45.91513,1.89518 c -0.88095,-2.20233 -0.9632,-2.22744 -1.02148,-0.31185 -0.0349,1.14584 0.23661,2.38334 0.60328,2.75 1.19437,1.19438 1.39751,0.0101 0.4182,-2.43815 z m 61.91513,2.16384 c 0,-0.51754 -0.45,-1.2191 -1,-1.55902 -0.55,-0.33992 -1,0.0835 -1,0.94098 0,0.85746 0.45,1.55902 1,1.55902 0.55,0 1,-0.42344 1,-0.94098 z m -62.30701,-8.78999 c -0.25354,-0.97297 -0.47766,-0.41903 -0.49804,1.23097 -0.0204,1.65 0.18706,2.44606 0.46099,1.76903 0.27392,-0.67703 0.29059,-2.02703 0.037,-3 z m 60.49034,0.5143 c -0.71756,-0.71756 -1.18333,-0.7766 -1.18333,-0.15 0,1.33478 1.18261,2.51739 1.85,1.85 0.28417,-0.28416 -0.0158,-1.04916 -0.66667,-1.7 z m -5.95794,-5.53333 c -0.23013,-2.8875 -0.82499,-5.25 -1.3219,-5.25 -1.04396,0 -1.24425,10.3259 -0.22016,11.35 1.36394,1.36394 1.95164,-0.96083 1.54206,-6.1 z m -67.22539,-1.80902 c 0,-1.45136 -0.43284,-2.2915 -1,-1.94098 -0.55,0.33992 -1,1.49148 -1,2.55902 0,1.06754 0.45,1.94098 1,1.94098 0.55,0 1,-1.15156 1,-2.55902 z m 12.68311,0.37152 c -0.31922,-0.79773 -0.55618,-0.56078 -0.60416,0.60417 -0.0434,1.05416 0.19293,1.64479 0.52522,1.3125 0.33229,-0.33229 0.36782,-1.1948 0.079,-1.91667 z m 69.04627,-3.30392 c 0.15719,-2.40964 -0.16762,-4.66139 -0.72179,-5.00389 -0.63198,-0.39058 -1.00759,1.51173 -1.00759,5.10296 0,6.55563 1.30013,6.48115 1.72938,-0.0991 z m -29.74469,0.74142 c -0.008,-0.9625 -0.45153,-2.425 -0.98469,-3.25 -0.7356,-1.13826 -0.97307,-0.71622 -0.98469,1.75 -0.008,1.7875 0.43469,3.25 0.98469,3.25 0.55,0 0.99311,-0.7875 0.98469,-1.75 z m -38.98469,-0.80902 c 0,-0.85746 -0.45,-1.2809 -1,-0.94098 -0.55,0.33992 -1,1.04148 -1,1.55902 0,0.51754 0.45,0.94098 1,0.94098 0.55,0 1,-0.70156 1,-1.55902 z m -0.31689,-4.62848 c -0.31922,-0.79773 -0.55618,-0.56078 -0.60416,0.60417 -0.0434,1.05416 0.19293,1.64479 0.52522,1.3125 0.33229,-0.33229 0.36782,-1.1948 0.079,-1.91667 z m 53.882,-10.23959 c -0.0469,-8.2341 -0.34453,-10.90266 -1.06511,-9.55025 -1.42203,2.66894 -1.14701,20.97734 0.31511,20.97734 0.44831,0 0.78581,-5.14219 0.75,-11.42709 z m -66.56511,8.36807 c 0,-0.51754 -0.45,-0.94098 -1,-0.94098 -0.55,0 -1,0.70156 -1,1.55902 0,0.85746 0.45,1.2809 1,0.94098 0.55,-0.33992 1,-1.04148 1,-1.55902 z m 52,-0.94098 c 0,-1.1 -0.45,-2 -1,-2 -0.55,0 -1,0.9 -1,2 0,1.1 0.45,2 1,2 0.55,0 1,-0.9 1,-2 z m -52.9199,-7.75 c -0.83156,-1.4277 -1.01928,-1.1054 -1.01928,1.75 0,2.8554 0.18772,3.1777 1.01928,1.75 0.69237,-1.18874 0.69237,-2.31126 0,-3.5 z m 6.60301,0.5625 c -0.31922,-0.79773 -0.55618,-0.56078 -0.60416,0.60417 -0.0434,1.05416 0.19293,1.64479 0.52522,1.3125 0.33229,-0.33229 0.36782,-1.1948 0.079,-1.91667 z m 6.92106,-0.54167 c -1.01652,-1.01651 -1.85525,0.51389 -1.02122,1.86338 0.63003,1.01942 0.86558,1.02021 1.2043,0.004 0.2316,-0.69479 0.14921,-1.53513 -0.18308,-1.86742 z m 68.39583,-1.88886 c 0,-1.41203 -0.43519,-2.23104 -1,-1.88197 -0.55,0.33992 -1,1.74303 -1,3.11803 0,1.41203 0.43519,2.23104 1,1.88197 0.55,-0.33992 1,-1.74303 1,-3.11803 z m -75.81667,-1.59864 c -0.71756,-0.71756 -1.18333,-0.7766 -1.18333,-0.15 0,1.33478 1.18261,2.51739 1.85,1.85 0.28417,-0.28416 -0.0158,-1.04916 -0.66667,-1.7 z m 7.57431,-1.53333 c 0.15053,-3.39192 0.0711,-3.51751 -0.83172,-1.31528 -0.86178,2.10212 -0.66388,5.06528 0.33831,5.06528 0.17985,0 0.40188,-1.6875 0.49341,-3.75 z m 45.50962,-0.5 c -0.74419,-5.83082 -1.26726,-6.0028 -1.26726,-0.41667 0,2.56667 0.40718,4.66667 0.90484,4.66667 0.49767,0 0.66075,-1.9125 0.36242,-4.25 z m -38.26726,-2.80902 c 0,-3.7847 -0.37536,-5.82703 -1,-5.44098 -1.61999,1.00121 -1.06585,11.5 0.60699,11.5 0.21616,0 0.39301,-2.72656 0.39301,-6.05902 z m 54.96456,5.30902 c -0.0195,-0.4125 -0.67854,-1.875 -1.46456,-3.25 -1.02069,-1.78552 -1.43926,-2.02324 -1.46456,-0.83179 -0.0499,2.3488 1.01465,4.83179 2.07155,4.83179 0.49115,0 0.87706,-0.3375 0.85757,-0.75 z m 21.72843,-3.98097 c -0.25354,-0.97297 -0.47766,-0.41903 -0.49804,1.23097 -0.0204,1.65 0.18706,2.44606 0.46099,1.76903 0.27392,-0.67703 0.29059,-2.02703 0.0371,-3 z m -44.69299,-3.32805 c 0,-1.61754 -0.45,-2.94098 -1,-2.94098 -0.55,0 -1,1.60156 -1,3.55902 0,2.11803 0.40488,3.30878 1,2.94098 0.55,-0.33992 1,-1.94148 1,-3.55902 z m -39.5095,-12.17754 c -0.35986,-16.04582 -0.35295,-15.96648 -1.33726,-15.35815 -0.46572,0.28783 -0.72687,2.90189 -0.58034,5.80902 0.14653,2.90713 0.30257,9.24975 0.34676,14.09471 0.0442,4.84496 0.47758,8.5635 0.9631,8.26344 0.48552,-0.30007 0.759,-6.06413 0.60774,-12.80902 z m 46.5095,7.67754 c 0,-0.79254 -0.45,-1.44098 -1,-1.44098 -0.55,0 -1,0.92656 -1,2.05902 0,1.13246 0.45,1.7809 1,1.44098 0.55,-0.33992 1,-1.26648 1,-2.05902 z m 21.09619,-3.16222 c -0.87653,-1.50586 -1.04004,-1.30572 -1.06578,1.30457 -0.0167,1.69584 0.30709,3.42606 0.71959,3.84494 1.19384,1.2123 1.48948,-3.18536 0.34619,-5.14951 z m 17.30557,1.61025 c -0.19138,-0.33605 -0.34777,-4.38605 -0.34751,-9 8e-4,-14.61621 -0.13453,-16.32011 -1.35799,-17.09789 -0.91224,-0.57993 -0.89948,-0.76413 0.0537,-0.77581 1.78038,-0.0218 1.55242,-3.68528 -0.2729,-4.38572 -1.31557,-0.50484 -1.49394,0.94411 -1.3102,10.64301 0.11699,6.17507 0.6898,12.07369 1.2729,13.10805 0.79025,1.40179 0.73129,1.99946 -0.23154,2.34725 -0.98615,0.35621 -1.01888,0.79536 -0.13833,1.85636 0.63437,0.76437 0.88635,2.45381 0.55995,3.7543 -0.71441,2.84641 0.53285,4.51957 1.46366,1.96345 0.36091,-0.99111 0.49961,-2.07696 0.30822,-2.413 z m -70.24837,-4.36213 c -0.36971,-6.04462 -1.54331,-6.90336 -1.40339,-1.02688 0.16487,6.9246 0.26084,7.61135 1,7.15595 0.4125,-0.25415 0.59403,-3.01223 0.40339,-6.12907 z m 39.01637,1.38068 c 0.5745,-0.3627 0.49052,-2.37108 -0.21659,-5.17925 -0.81533,-3.23796 -0.85336,-5.56335 -0.12933,-7.90756 0.83056,-2.6891 0.90468,-9.47084 0.12921,-11.82075 -0.0908,-0.275 -0.0636,-3.2 0.0604,-6.5 0.12395,-3.3 0.18622,-6.675 0.13838,-7.5 -0.0478,-0.825 -0.3057,-12.46663 -0.57301,-25.87029 -0.45711,-22.91998 -0.74831,-26.29352 -2.14878,-24.89305 -0.49144,0.49144 -0.84109,23.92536 -0.58584,39.26334 0.0458,2.75 0.0674,5.675 0.048,6.5 -0.0194,0.825 0.24697,4.0875 0.59186,7.25 0.44563,4.08636 0.28791,5.75 -0.54512,5.75 -0.77949,0 -0.91148,0.75376 -0.394,2.25 0.42799,1.2375 0.86932,6.975 0.98073,12.75 0.29771,15.43308 0.64424,20.74864 1.20604,18.5 0.27483,-1.1 0.92196,-2.2666 1.43808,-2.59244 z m 40.46548,-1.41573 c -0.34161,-0.89023 -1.07429,-1.33851 -1.62818,-0.9962 -1.16403,0.71942 -1.3556,4.82249 -0.27559,5.90251 1.06177,1.06176 2.63655,-2.9967 1.90377,-4.90631 z m -87.1526,-16.55959 c -0.29766,-14.98653 -0.29315,-14.93189 -1.23264,-14.93362 -0.4125,-7.7e-4 -0.58716,7.31173 -0.38813,16.25 0.21131,9.49008 0.67511,15.18308 1.11478,13.68362 0.4141,-1.41227 0.64179,-8.16227 0.50599,-15 z m 31.75856,6.20777 c -0.92476,-5.76918 -2.20104,-1.11776 -1.48883,5.42602 l 0.64585,5.93397 0.69078,-4 c 0.37993,-2.2 0.44842,-5.512 0.1522,-7.35999 z m 36.44191,7.67249 c -0.31922,-0.79773 -0.55618,-0.56078 -0.60416,0.60417 -0.0434,1.05416 0.19292,1.64479 0.52522,1.3125 0.33229,-0.33229 0.36781,-1.1948 0.0789,-1.91667 z m -6.94763,-12.32214 c -0.22144,-7.80808 -0.79713,-12.95201 -1.53177,-13.68665 -0.90267,-0.90267 -1.08849,1.13899 -0.79723,8.75964 0.20887,5.46516 0.42786,11.62415 0.48665,13.68665 0.0588,2.0625 0.57717,3.75 1.15199,3.75 0.69004,0 0.92459,-4.2502 0.69036,-12.50964 z m -82.04249,6.77867 c -0.25354,-0.97297 -0.47766,-0.41903 -0.49804,1.23097 -0.0204,1.65 0.18706,2.44606 0.46099,1.76903 0.27392,-0.67703 0.29059,-2.02703 0.037,-3 z m 74.36911,-11.707 c -0.11627,-13.68227 0.65099,-17.56203 3.47308,-17.56203 1.0139,0 1.46482,1.10307 1.46482,3.58333 0,2.42223 0.40504,3.44832 1.25,3.16667 0.6875,-0.22917 1.205,-0.94167 1.15,-1.58333 -0.055,-0.64167 -0.1675,-2.29167 -0.25,-3.66667 -0.11699,-1.94991 -0.69235,-2.5 -2.61482,-2.5 -3.0624,0 -4.78504,-2.97871 -4.71366,-8.15064 0.0292,-2.11715 -0.38771,-3.84936 -0.9265,-3.84936 -0.83788,0 -0.82454,10.86879 0.0533,43.41667 0.0284,1.05416 0.31665,1.6517 0.6405,1.32786 0.32384,-0.32385 0.53682,-6.70597 0.47329,-14.1825 z m -47.1311,7.06615 c -0.94241,-0.86767 -1.07592,-0.7052 -0.57818,0.70361 0.35595,1.00748 0.7146,2.80748 0.79701,4 0.10557,1.52763 0.27639,1.31976 0.57818,-0.70361 0.23559,-1.5795 -0.12306,-3.3795 -0.79701,-4 z m 61.67317,3.64265 c -1.01652,-1.01651 -1.85525,0.51389 -1.02122,1.86338 0.63003,1.01942 0.86558,1.02021 1.2043,0.004 0.2316,-0.69479 0.14921,-1.53513 -0.18308,-1.86742 z m -29.60735,-8.92539 c -0.17947,-12.13395 -0.19512,-12.34542 -0.91349,-12.34554 -0.32083,-5e-5 -0.53691,3.48745 -0.48018,7.75 0.0567,4.26256 -0.22758,8.4251 -0.63183,9.2501 -0.77201,1.57556 0.6724,6.68961 1.62138,5.74063 0.30236,-0.30236 0.48421,-4.98019 0.40412,-10.39519 z m 47.00318,7.65456 c 0,-0.55 -0.19844,-1 -0.44098,-1 -0.24254,0 -0.7191,0.45 -1.05902,1 -0.33992,0.55 -0.14148,1 0.44098,1 0.58246,0 1.05902,-0.45 1.05902,-1 z m -53,-6.05902 c 0,-1.13246 -0.45,-1.7809 -1,-1.44098 -0.55,0.33992 -1,1.26648 -1,2.05902 0,0.79254 0.45,1.44098 1,1.44098 0.55,0 1,-0.92656 1,-2.05902 z m -25.14805,-4.96751 c 0.0697,-3.09405 -0.26898,-4.83377 -0.86885,-4.46302 -0.54071,0.33417 -0.9831,2.85758 -0.9831,5.60758 0,6.52349 1.7029,5.47104 1.85195,-1.14456 z m 97.86462,3.39067 c 2.35589,-0.89972 4.28343,-2.02472 4.28343,-2.5 0,-0.47528 0.40663,-0.86414 0.90361,-0.86414 1.17412,0 7.31562,-5.33683 12.50173,-10.86373 2.25206,-2.40005 7.96492,-8.25005 12.69524,-13 9.68525,-9.72543 11.99829,-13.75421 12.83052,-22.34773 0.13902,-1.43554 8.82424,-3.03647 18.31782,-3.37647 5.3619,-0.19203 12.3369,-1.0586 15.5,-1.92571 3.16309,-0.86712 8.13554,-2.23128 11.04987,-3.03147 2.91433,-0.80019 8.76433,-1.47449 13,-1.49844 9.49651,-0.0537 15.55372,-1.1661 17.6243,-3.23668 1.43355,-1.43356 1.43405,-1.71977 0.005,-3.14834 -0.8638,-0.86429 -2.17928,-1.57143 -2.92279,-1.57143 -2.84655,0 -7.22875,-4.9061 -7.79359,-8.72532 -0.30703,-2.07607 -1.07665,-7.37468 -1.71025,-11.77468 -1.42368,-9.88662 -3.71042,-17.34976 -6.14786,-20.06445 -1.2889,-1.43552 -1.8536,-3.60691 -1.8536,-7.12752 0,-4.92411 0.15159,-5.18787 5.52295,-9.60987 3.03762,-2.50073 5.97414,-4.69719 6.52559,-4.88101 0.66472,-0.22157 0.61545,-4.20723 -0.14618,-11.82568 -0.63186,-6.32031 -1.28994,-13.38855 -1.46241,-15.7072 -0.43693,-5.87393 -3.2222,-11.22325 -7.00615,-13.45583 -1.76289,-1.04013 -4.38572,-3.59456 -5.82851,-5.67651 -3.29347,-4.75248 -5.8015,-13.91679 -4.48293,-16.38057 0.62289,-1.16387 0.5587,-2.49879 -0.18718,-3.89247 -1.55843,-2.91195 -1.4286,-8.95131 0.21482,-9.99276 0.7425,-0.47053 2.3074,-0.86239 3.47756,-0.87082 4.02948,-0.029 4.57963,-2.26802 1.86973,-7.60946 -1.36891,-2.69822 -2.48404,-5.58085 -2.47808,-6.40585 0.006,-0.825 -1.7411,-5.55 -3.88236,-10.5 -2.14126,-4.95 -4.9054,-12.28311 -6.14253,-16.2958 l -2.24933,-7.2958 -37.6225,0.57044 c -46.56287,0.706 -68.02815,1.34482 -69.18363,2.05895 -0.48829,0.30178 -0.60099,2.66673 -0.25044,5.25545 0.35054,2.58872 0.58642,5.83176 0.52418,7.20676 -0.0623,1.375 0.30202,3.85 0.80948,5.5 0.50747,1.65 1.01179,4.8 1.12072,7 0.10893,2.2 0.61011,4.54279 1.11372,5.20619 0.50361,0.66341 0.65377,1.62995 0.33367,2.14788 -0.51006,0.82529 0.44714,4.92043 3.34063,14.29198 1.72613,5.59065 -0.75694,14.08349 -5.67928,19.42482 -4.09981,4.44879 -10.51709,9.42913 -12.14963,9.42913 -0.56735,0 -1.46818,0.81586 -2.00184,1.81302 -0.73977,1.38228 -0.0354,3.68491 2.96481,9.6918 2.16432,4.33332 3.93512,9.1159 3.93512,10.62796 0,1.51205 0.45,3.0273 1,3.36722 0.55,0.33992 1,1.91492 1,3.5 0,1.58508 0.45,3.16008 1,3.5 0.55,0.33992 1,1.70121 1,3.02509 0,2.22939 1.10344,5.34572 4.5942,12.97491 2.17119,4.74523 3.73729,17.01209 2.47342,19.37366 -0.58719,1.09717 -1.06762,4.47288 -1.06762,7.50158 0,3.0287 -0.45332,5.78689 -1.00738,6.12932 -1.09686,0.6779 -4.99262,8.30841 -4.99262,9.7789 0,0.49929 -0.82692,2.10227 -1.8376,3.56217 -2.60146,3.75775 -4.48518,11.40828 -3.6949,15.00641 0.44135,2.00943 0.0963,4.26491 -1.00866,6.59346 -1.13717,2.3964 -1.43338,4.4297 -0.91733,6.29687 1.00869,3.64968 1.16164,15.32229 0.20849,15.9118 -0.4125,0.25513 -0.75,2.26689 -0.75,4.47059 0,2.2037 -0.48433,4.9117 -1.07628,6.01777 -0.86161,1.60993 -0.61229,2.69248 1.25,5.42743 1.27945,1.87901 2.94656,3.41945 3.70467,3.42321 0.75812,0.004 3.71401,2.47676 6.56866,5.49556 3.35732,3.55039 6.30505,5.71169 8.34695,6.12007 2.35805,0.47161 3.80609,1.73946 5.7235,5.01127 2.83641,4.83997 3.93622,5.13587 10.19907,2.74407 z M -121.743,237.4313 c -0.31644,-0.512 -0.11799,-1.21356 0.44098,-1.55902 0.55897,-0.34546 1.01631,0.0734 1.01631,0.9309 0,1.75653 -0.60006,2.01516 -1.45729,0.62812 z m -110.61299,244.6809 c 0.0386,-0.9625 -0.37972,-1.75 -0.92972,-1.75 -0.55,0 -0.96837,1.6875 -0.92971,3.75 0.0564,3.0082 0.24029,3.35437 0.92971,1.75 0.47269,-1.1 0.89106,-2.7875 0.92972,-3.75 z m 13.81455,-5.30345 c -0.2909,-7.67245 -2.28446,-8.77907 -2.1539,-1.19562 0.1353,7.85923 0.31655,8.92463 1.4039,8.25261 0.54684,-0.33796 0.88434,-3.51361 0.75,-7.05699 z m 266.75573,4.55345 c 0.33992,-0.55 -0.11008,-1 -1,-1 -0.88992,0 -1.33992,0.45 -1,1 0.33992,0.55 0.78992,1 1,1 0.21008,0 0.66008,-0.45 1,-1 z m -228.5,-10 c 0,-6 -0.4,-10 -1,-10 -0.55,0 -1.05363,1.2375 -1.11918,2.75 -0.0656,1.5125 -0.22353,5.225 -0.35105,8.25 -0.26508,6.28809 0.19824,9 1.53762,9 0.51464,0 0.93261,-4.48171 0.93261,-10 z m -45,7.5 c 0,-0.825 -0.45,-1.5 -1,-1.5 -0.55,0 -1,0.675 -1,1.5 0,0.825 0.45,1.5 1,1.5 0.55,0 1,-0.675 1,-1.5 z m 81.83003,-4 c -0.0236,-1.60779 -0.1864,-1.50973 -0.83003,0.5 -1.09501,3.41917 -1.09501,6.04822 0,3.5 0.47269,-1.1 0.8462,-2.9 0.83003,-4 z m 201.16997,2.5 c 0,-0.55 -0.47656,-1 -1.05902,-1 -0.58246,0 -0.7809,0.45 -0.44098,1 0.33992,0.55 0.81648,1 1.05902,1 0.24254,0 0.44098,-0.45 0.44098,-1 z M 3.3974,475.1747 c -0.31922,-0.79773 -0.55618,-0.56078 -0.60416,0.60417 -0.0434,1.05416 0.19293,1.64479 0.52522,1.3125 0.33229,-0.33229 0.36781,-1.1948 0.0789,-1.91667 z m -208.18577,-9.0625 c -0.19603,-13.5326 -0.40407,-15.92568 -1.33449,-15.35065 -1.67962,1.03807 -0.51893,24.60065 1.21183,24.60065 0.14116,0 0.19636,-4.1625 0.12266,-9.25 z m -7.62251,-16.5 c -0.0688,-11.4125 -0.41306,-18.95 -0.76494,-16.75 -0.49893,3.11936 -0.5621,19.35598 -0.14104,36.25 0.0171,0.6875 0.25615,1.25 0.53115,1.25 0.275,0 0.44368,-9.3375 0.37483,-20.75 z m 242.62517,17.75 c 0.33992,-0.55 0.14148,-1 -0.44098,-1 -0.58246,0 -1.05902,0.45 -1.05902,1 0,0.55 0.19844,1 0.44098,1 0.24254,0 0.7191,-0.45 1.05902,-1 z m -249.5,-5.5 c 0,-3.025 -0.3375,-5.49999 -0.75,-5.49998 -0.84068,2e-5 -1.38775,8.96808 -0.6226,10.20612 1.04903,1.69736 1.3726,0.58796 1.3726,-4.70614 z m 260,4 c 0,-0.825 -0.45,-1.5 -1,-1.5 -0.55,0 -1,0.675 -1,1.5 0,0.825 0.45,1.5 1,1.5 0.55,0 1,-0.675 1,-1.5 z m -17,-0.91821 c 0,-1.78587 -1.52826,-3.58179 -3.04797,-3.58179 -2.10493,0 -3.35835,1.53354 -2.45203,3 0.58578,0.94782 5.5,1.46764 5.5,0.58179 z m -255.83003,-7.01541 c -0.76525,-1.38736 -1.98569,2.68832 -1.32762,4.43362 0.40369,1.07067 0.74832,0.78446 1.20409,-1 0.35118,-1.375 0.40677,-2.92013 0.12353,-3.43362 z m 5.83003,1.43362 c 0,-1.1 -0.45,-2 -1,-2 -0.55,0 -1,0.9 -1,2 0,1.1 0.45,2 1,2 0.55,0 1,-0.9 1,-2 z m 53,-1.5 c 0,-1.925 -0.45,-3.5 -1,-3.5 -1.11241,0 -1.32857,2.98018 -0.39301,5.41821 0.9527,2.48271 1.39301,1.87639 1.39301,-1.91821 z m 214.5,-0.5 c 0.35191,-0.5694 -0.50929,-1 -2,-1 -1.49071,0 -2.35191,0.4306 -2,1 0.33992,0.55 1.23992,1 2,1 0.76008,0 1.66008,-0.45 2,-1 z m -238.22928,-5.25 c 0.26814,-1.2375 0.35041,-6.075 0.18282,-10.75 -0.60667,-16.92371 -1.54653,-69.78774 -1.45516,-81.84865 0.0722,-9.53655 -0.19417,-12.25275 -1.16992,-11.9275 -0.99177,0.33059 -1.21034,7.82434 -1.01644,34.84865 0.23288,32.45648 0.76238,67.90671 1.05567,70.6775 0.22109,2.08875 1.88367,1.39688 2.40303,-1 z m -36.00957,-7.01112 c -1.02883,-2.22651 -1.03854,-2.22369 -1.75626,0.51112 -0.39694,1.5125 -0.38195,3.9875 0.0333,5.5 l 0.75501,2.75 1.00125,-3.26112 c 0.67727,-2.2059 0.6665,-3.98558 -0.0333,-5.5 z m 51.73885,6.36811 c 0,-2.00661 2.51671,-3.52372 4.16032,-2.50791 0.53891,0.33307 1.36978,1.57203 1.84637,2.75325 0.64203,1.59123 0.88296,0.63939 0.92992,-3.67376 0.0576,-5.29221 -0.0795,-5.67857 -1.50804,-4.25 -1.85601,1.85601 -2.6505,1.9495 -4.1157,0.4843 -0.78284,-0.78285 -1.30776,-0.73016 -1.87535,0.18823 -1.01734,1.64608 -1.17017,8.89906 -0.18752,8.89897 0.4125,-4e-5 0.75,-0.85193 0.75,-1.89308 z m 23,-2.10699 c 0,-0.55 -0.47656,-1 -1.05902,-1 -0.58246,0 -0.7809,0.45 -0.44098,1 0.33992,0.55 0.81648,1 1.05902,1 0.24254,0 0.44098,-0.45 0.44098,-1 z m 7,-4.44098 c 0,-2.99254 -0.45,-5.7191 -1,-6.05902 -0.62464,-0.38605 -1,1.65628 -1,5.44098 0,3.37268 0.44336,6.05902 1,6.05902 0.55,0 1,-2.44844 1,-5.44098 z m -54,0.94098 c 0,-1.375 -0.45,-2.5 -1,-2.5 -1.11717,0 -1.3707,3.29596 -0.33333,4.33333 1.10234,1.10234 1.33333,0.78473 1.33333,-1.83333 z m 46.06065,-7 -0.67164,-5 -0.45032,4.73255 c -0.49493,5.20131 -0.12119,7.39529 1.03996,6.10495 0.41451,-0.46063 0.45141,-3.0875 0.082,-5.8375 z m -73.06065,0.44098 c 0,-2.00979 -1.459,-2.62535 -2.44423,-1.03122 -0.79864,1.29223 0.47441,4.18962 1.54902,3.52548 0.49236,-0.3043 0.89521,-1.42672 0.89521,-2.49426 z m 26.96848,-29.1169 c -0.11919,-17.22824 -0.26948,-38.86287 -0.334,-48.07694 -0.0754,-10.76902 -0.47755,-16.63266 -1.12589,-16.41631 -0.66414,0.22161 -0.87381,13.62702 -0.61394,39.25286 0.53927,53.17729 0.68752,58.16748 1.69794,57.15706 0.32592,-0.32593 0.49507,-14.68843 0.37589,-31.91667 z m -20.96848,28.67592 c 0,-0.825 -0.45,-1.5 -1,-1.5 -0.55,0 -1,0.675 -1,1.5 0,0.825 0.45,1.5 1,1.5 0.55,0 1,-0.675 1,-1.5 z m 45.27207,-8.97918 c -0.21107,-9.08478 -0.60782,-11.5184 -1.6998,-10.42643 -0.40057,0.40057 -0.80845,11.9265 -0.64544,18.23894 0.0465,1.80094 0.52864,2.68106 1.32317,2.41541 0.90803,-0.30359 1.18765,-3.10167 1.02207,-10.22792 z m 7.91025,-2.24051 c 0.75614,-0.91109 0.73887,-1.28031 -0.0599,-1.28031 -0.61734,0 -1.12244,-0.75 -1.12244,-1.66667 0,-0.91666 -0.31561,-1.35105 -0.70136,-0.9653 -1.04665,1.04664 -1.38037,8.64023 -0.55516,12.63197 0.67914,3.28512 0.7436,3.16419 1.04992,-1.96969 0.1795,-3.00832 0.80451,-6.04582 1.38892,-6.75 z m 21.39288,0.67766 c 0.0868,-3.27688 -0.23211,-5.95797 -0.70869,-5.95797 -0.47658,0 -0.86651,3 -0.86651,6.66667 0,8.1758 1.35603,7.56571 1.5752,-0.7087 z m -81.67488,2.79203 c -0.0932,-3.0378 -0.14818,-3.08677 -0.84247,-0.75 -0.40854,1.375 -0.56213,2.8375 -0.34131,3.25 0.83871,1.56674 1.27993,0.63494 1.18378,-2.5 z m 238.59968,1.25 c -0.33992,-0.55 -1.04148,-1 -1.55902,-1 -0.51754,0 -0.94098,0.45 -0.94098,1 0,0.55 0.70156,1 1.55902,1 0.85746,0 1.2809,-0.45 0.94098,-1 z m -164.38485,-2.25 c 0.21157,-2.29653 -0.30354,-5.23474 -1.18337,-6.75 -0.58499,-1.00749 -0.88095,0.0596 -0.90137,3.25 -0.0167,2.6125 0.41959,4.75 0.96959,4.75 0.55,0 1.05182,-0.5625 1.11515,-1.25 z m 230.63265,-4.75 c 0.26724,-0.9911 0.12419,-1.11517 -0.42167,-0.36568 -0.45437,0.62387 -1.72613,1.38196 -2.82613,1.68464 -1.577,0.43394 -1.48782,0.51128 0.42167,0.36568 1.33192,-0.10155 2.60368,-0.85964 2.82613,-1.68464 z m -245.7478,-7.55902 c 0,-2.7847 -0.38919,-4.31848 -1,-3.94098 -1.72051,1.06334 -1.13724,8.5 0.66667,8.5 0.18333,0 0.33333,-2.05156 0.33333,-4.55902 z m -38.01365,-0.19098 c -0.007,-2.0625 -0.33833,-4.875 -0.73514,-6.25 -0.64758,-2.24388 -0.77561,-2.09022 -1.24979,1.5 -0.6226,4.71396 -0.12589,8.5 1.11516,8.5 0.48588,0 0.87728,-1.6875 0.86977,-3.75 z m -8.26162,-5.48209 c -0.22256,-1.79735 -0.40925,-0.56791 -0.41486,2.73209 -0.006,3.3 0.17648,4.77056 0.40466,3.26791 0.22817,-1.50265 0.23276,-4.20265 0.0102,-6 z m 62.01204,0.63553 c -0.16208,-0.16208 -0.84944,0.0482 -1.52748,0.46721 -0.82895,0.51232 -1.00288,1.88669 -0.53094,4.19563 l 0.70184,3.43372 0.82564,-3.90093 c 0.4541,-2.14552 0.69302,-4.03355 0.53094,-4.19563 z m 6.54557,-0.64538 c -0.5793,-9.6913 -1.28234,-9.92415 -1.28234,-0.42473 0,4.21667 0.38593,7.66667 0.85762,7.66667 0.47168,0 0.66281,-3.25887 0.42472,-7.24194 z m 174.66822,2.37544 c 2.29294,-1.02658 4.07424,-2.26408 3.95844,-2.75 -0.36902,-1.54858 -3.33466,-3.31882 -5.61499,-3.3517 -1.2133,-0.0175 -4.4956,-1.3818 -7.29401,-3.0318 -2.79841,-1.65 -5.21527,-3 -5.37081,-3 -0.15554,0 -0.0699,1.4625 0.19026,3.25 0.64809,4.45243 2.90341,7.61317 6.58497,9.22857 1.70257,0.74705 3.15894,1.39499 3.23638,1.43986 0.0774,0.0449 2.01683,-0.75836 4.30976,-1.78493 z m 97.04944,-0.10212 c 0,-0.53273 -0.675,-0.70959 -1.5,-0.39301 -0.825,0.31659 -1.5,0.75246 -1.5,0.96862 0,0.21615 0.675,0.39301 1.5,0.39301 0.825,0 1.5,-0.43588 1.5,-0.96862 z m -286.01531,-9.28138 c -0.014,-8.43493 -0.9839,-13.28186 -2.22261,-11.10676 -0.26836,0.47122 -0.56582,5.24426 -0.66103,10.60676 -0.14517,8.17676 0.0747,9.75 1.36292,9.75 1.27177,0 1.5334,-1.59138 1.52072,-9.25 z m -66.79523,-17 c -0.1708,-6.4625 -0.65299,-11.75 -1.07153,-11.75 -0.68275,0 -0.79504,31.78942 -0.11656,33 0.77693,1.38625 1.46235,-10.8729 1.18809,-21.25 z m 73.64057,12.25 c 0.018,-0.91898 -0.3035,-0.72531 -0.83003,0.5 -0.47269,1.1 -0.8462,2.9 -0.83003,4 0.0236,1.60779 0.1864,1.50973 0.83003,-0.5 0.44035,-1.375 0.81387,-3.175 0.83003,-4 z m -60.60858,-3.25 c -0.2236,-3.1625 -0.8149,-5.75 -1.314,-5.75 -1.03121,0 -1.20404,8.28995 -0.24735,11.86401 1.06033,3.96123 2.01062,0.24006 1.56135,-6.11401 z m 7.34346,-11.55631 c 0.14809,-9.26419 -0.10446,-17.44867 -0.56123,-18.18773 -1.37888,-2.23108 -2.19047,6.85266 -1.22375,13.69677 0.4902,3.4705 0.49536,5.96741 0.0117,5.6685 -0.47543,-0.29383 -0.65512,1.18994 -0.39931,3.29727 0.2558,2.10732 0.49717,6.044 0.53638,8.74817 0.0392,2.70416 0.3628,4.62514 0.71911,4.26884 0.3563,-0.3563 0.76899,-8.22762 0.91708,-17.49182 z m 60.01033,11.04822 c -1.08623,-1.08624 -1.39787,0.26161 -0.75331,3.25809 l 0.64532,3 0.34162,-2.84142 c 0.18789,-1.56278 0.0828,-3.10028 -0.23363,-3.41667 z m 195.42476,3.69907 c 0,-0.51754 -0.45,-0.94098 -1,-0.94098 -0.55,0 -1,0.70156 -1,1.55902 0,0.85746 0.45,1.2809 1,0.94098 0.55,-0.33992 1,-1.04148 1,-1.55902 z M 61.3974,397.1747 c -0.31922,-0.79773 -0.55618,-0.56078 -0.60416,0.60417 -0.0434,1.05416 0.19293,1.64479 0.52522,1.3125 0.33229,-0.3323 0.36781,-1.1948 0.0789,-1.91667 z m -17.359,-1.21473 c 0.62512,-1.62905 -0.21476,-2.78338 -1.46359,-2.01157 -1.13593,0.70205 -1.11012,3.4138 0.0325,3.4138 0.49116,0 1.13515,-0.63101 1.4311,-1.40223 z M 31.95904,392.8622 c -0.28682,-1.50042 -1.131,-2.46843 -2.11133,-2.42105 -1.03678,0.0501 -1.17683,0.26318 -0.38342,0.58333 0.6875,0.27741 1.25,1.36689 1.25,2.42105 0,1.05417 0.3876,1.91667 0.86133,1.91667 0.47373,0 0.64627,-1.125 0.38342,-2.5 z m -15.74475,-2.5 c -0.33992,-0.55 -1.29303,-1 -2.11803,-1 -0.825,0 -1.22189,0.45 -0.88197,1 0.33992,0.55 1.29303,1 2.11803,1 0.825,0 1.22189,-0.45 0.88197,-1 z m -190.76646,-5.44487 c -0.3894,-5.96934 -1.73354,-7.04591 -1.73354,-1.38846 0,3.95955 0.53914,5.83333 1.67841,5.83333 0.1898,0 0.2146,-2.00019 0.0551,-4.44487 z m 37.15635,3.07755 c 0.86313,-1.04001 0.77275,-1.66778 -0.37756,-2.62245 -1.28439,-1.06594 -1.51233,-0.85986 -1.51233,1.36733 0,2.98525 0.29268,3.17963 1.88989,1.25512 z m -29.62374,-13.89483 c -0.3202,-7.28082 -0.5169,-16.05035 -0.4371,-19.48785 0.0798,-3.4375 -0.25814,-6.25 -0.75096,-6.25 -1.0766,0 -1.8224,19.52945 -1.00428,26.29798 0.31897,2.63889 0.2062,5.02897 -0.2506,5.31129 -0.73872,0.45655 -0.43014,3.40786 0.75325,7.20411 0.22518,0.72236 0.82847,1.0544 1.34064,0.73785 0.54728,-0.33823 0.69119,-6.03353 0.34905,-13.81338 z m -53.26615,10.26215 c 0,-1.65 -0.45,-3 -1,-3 -0.55,0 -1,1.35 -1,3 0,1.65 0.45,3 1,3 0.55,0 1,-1.35 1,-3 z m 256,-1.29617 c 0,-4.05869 -0.38997,-4.64533 -7.05447,-10.6122 -3.87996,-3.47382 -7.33386,-6.03664 -7.67533,-5.69516 -1.04839,1.04839 -0.60025,6.90444 0.82559,10.78828 0.99932,2.72205 2.46393,4.2397 5.60583,5.80884 2.33919,1.16825 4.51483,2.54761 4.83475,3.06525 0.31991,0.51764 1.23011,0.94116 2.02265,0.94116 1.03103,0 1.44098,-1.22222 1.44098,-4.29617 z m 35,-3.70383 c 0,-0.55 -0.45,-1 -1,-1 -0.55,0 -1,0.45 -1,1 0,0.55 0.45,1 1,1 0.55,0 1,-0.45 1,-1 z m -209.28242,-6.73625 c -0.22985,-1.52006 -0.42406,-0.51375 -0.43157,2.23625 -0.007,2.75 0.18056,3.99369 0.41792,2.76375 0.23736,-1.22994 0.24351,-3.47994 0.0136,-5 z m -22.01032,0.49791 c -0.23919,-1.24391 -0.44398,-0.46166 -0.45508,1.73834 -0.0111,2.2 0.18461,3.21775 0.4349,2.26166 0.25029,-0.95609 0.25937,-2.75609 0.0202,-4 z m -60.01427,0.50737 c -0.25354,-0.97297 -0.47766,-0.41903 -0.49804,1.23097 -0.0204,1.65 0.18706,2.44606 0.46099,1.76903 0.27392,-0.67703 0.29059,-2.02703 0.037,-3 z m 303.80701,1.50792 c 0.57068,-0.42591 0.24868,-0.7529 -0.75,-0.76164 -0.97279,-0.009 -1.75,0.72489 -1.75,1.65136 0,0.91666 0.3375,1.2594 0.75,0.76163 0.4125,-0.49777 1.2,-1.24088 1.75,-1.65135 z m -235.5,-4.33597 c 0,-0.85746 -0.45734,-1.27636 -1.01631,-0.9309 -0.55897,0.34546 -0.75742,1.04702 -0.44098,1.55902 0.85723,1.38704 1.45729,1.12841 1.45729,-0.62812 z m -22.71025,-1.44098 c -0.28766,-1.1 -0.69553,-2 -0.90638,-2 -0.21085,0 -0.38337,0.9 -0.38337,2 0,1.1 0.40787,2 0.90638,2 0.49851,0 0.67103,-0.9 0.38337,-2 z m 15.69494,-1.80902 c -0.008,-0.93004 -0.45153,-2.36598 -0.98469,-3.19098 -0.71959,-1.11348 -0.97332,-0.5185 -0.98469,2.30902 -0.009,2.28797 0.38402,3.56222 0.98469,3.19098 0.55,-0.33992 0.99311,-1.37898 0.98469,-2.30902 z m 7.01531,-1.19098 c 0,-1.1 -0.40787,-2 -0.90638,-2 -0.49851,0 -0.67103,0.9 -0.38337,2 0.28766,1.1 0.69553,2 0.90638,2 0.21085,0 0.38337,-0.9 0.38337,-2 z m 14.45267,-5.05261 c -0.39635,-7.35744 -1.45267,-7.39746 -1.45267,-0.055 0,3.42413 0.3887,5.98545 0.86379,5.69183 0.47508,-0.29361 0.74008,-2.83017 0.58888,-5.63679 z m -75.46798,-4.75641 c 0.009,-1.95454 -0.39402,-3.05604 -0.98469,-2.69098 -0.55,0.33992 -0.99311,2.50398 -0.98469,4.80902 0.0112,3.07432 0.2736,3.79132 0.98469,2.69098 0.53316,-0.825 0.97627,-2.98906 0.98469,-4.80902 z m -20.55774,-12.50691 c 0.10635,-7.37862 -0.13957,-14.26357 -0.5465,-15.29987 -0.40694,-1.03631 -0.77151,5.2783 -0.81016,14.03247 -0.0387,8.75416 0.20727,15.63911 0.5465,15.29987 0.33923,-0.33923 0.7038,-6.65384 0.81016,-14.03247 z m 73.51724,4.83081 c -0.55057,-1.35712 -0.80057,-0.0562 -0.7658,3.98512 0.0485,5.63999 0.0976,5.76089 0.81741,2.01488 0.42119,-2.19182 0.39796,-4.89182 -0.0516,-6 z m 6.73892,7.29762 c -0.31922,-0.79773 -0.55618,-0.56078 -0.60416,0.60417 -0.0434,1.05416 0.19292,1.64479 0.52522,1.3125 0.33229,-0.3323 0.36781,-1.1948 0.0789,-1.91667 z m -66.68311,-6.3125 c 0,-1.375 -0.45,-2.5 -1,-2.5 -1.11717,0 -1.3707,3.29596 -0.33333,4.33333 1.10234,1.10234 1.33333,0.78473 1.33333,-1.83333 z m 7,-1.55902 c 0,-2.45136 -0.39607,-3.81423 -1,-3.44098 -0.55,0.33992 -1,2.16648 -1,4.05902 0,1.89254 0.45,3.44098 1,3.44098 0.55,0 1,-1.82656 1,-4.05902 z m 60,-6.14098 c 0,-2.06109 -0.34425,-2.85575 -0.96725,-2.23275 -0.53198,0.53198 -0.7045,1.97198 -0.38337,3.2 0.82366,3.14965 1.35062,2.77227 1.35062,-0.96725 z m -53.04127,-10.99798 c -0.14881,-6.76611 -0.36783,-17.47702 -0.48671,-23.80202 -0.26535,-14.11787 -0.44873,-15.4399 -1.5258,-11 -0.83387,3.43738 -0.28437,44.16412 0.6327,46.89313 1.15523,3.4377 1.62986,-0.72151 1.37981,-12.09111 z m 37.97035,3.44798 c -0.0614,-5.3625 -0.0173,-10.2 0.0981,-10.75 0.11534,-0.55 0.15642,-6.5125 0.0913,-13.25 -0.13047,-13.49608 -1.79746,-17.05685 -1.96396,-4.19511 -0.0573,4.43019 -0.2911,8.36769 -0.51945,8.75 -0.22835,0.38231 -0.0889,2.81326 0.30985,5.40211 0.39876,2.58886 0.34794,4.47396 -0.11294,4.18912 -0.99329,-0.61389 -0.54064,3.22849 0.50331,4.27245 0.39606,0.39606 0.42681,3.31257 0.0683,6.48113 -0.61062,5.39723 -0.18712,8.8503 1.08544,8.8503 0.30347,0 0.50151,-4.3875 0.44009,-9.75 z m -30.28329,-19.63455 c -0.32925,-14.9135 -0.60924,-29.92795 -0.62221,-33.36545 -0.0168,-4.44479 -0.39852,-6.25 -1.3217,-6.25 -1.04386,0 -1.23925,6.41482 -0.99756,32.75 0.16531,18.0125 0.52129,33.34102 0.79106,34.06338 0.26977,0.72236 0.99867,0.99932 1.61977,0.61545 0.8182,-0.50567 0.96437,-8.16709 0.53064,-27.81338 z m -21.64579,25.88455 c 0,-0.825 -0.45,-1.5 -1,-1.5 -0.55,0 -1,0.675 -1,1.5 0,0.825 0.45,1.5 1,1.5 0.55,0 1,-0.675 1,-1.5 z m 7.15753,-1.25 c 0.0866,-0.9625 0.0841,-2.425 -0.006,-3.25 -0.26787,-2.46268 -0.9233,-23.80309 -1.04168,-33.91667 -0.0606,-5.17916 -0.41611,-9.11077 -0.78998,-8.73691 -0.37386,0.37386 -0.60007,5.73636 -0.50269,11.91667 0.0974,6.1803 0.20505,16.74941 0.23926,23.48691 0.0352,6.93918 0.46994,12.25 1.0027,12.25 0.51727,0 1.01138,-0.7875 1.09802,-1.75 z m -7.50556,-13.90556 c -0.35858,-5.86056 -0.65197,-13.81056 -0.65197,-17.66667 0,-3.85611 -0.26332,-6.74778 -0.58516,-6.42594 -0.32184,0.32184 -0.5735,7.03433 -0.55926,14.91666 0.0363,20.10175 0.0187,19.83151 1.29639,19.83151 0.838,0 0.97427,-2.9041 0.5,-10.65556 z m 67.84803,4.65556 c -0.33992,-0.55 -1.04148,-1 -1.55902,-1 -0.51754,0 -0.94098,0.45 -0.94098,1 0,0.55 0.70156,1 1.55902,1 0.85746,0 1.2809,-0.45 0.94098,-1 z m -23.04271,-4.9309 c 0.31644,-0.512 0.11799,-1.21356 -0.44098,-1.55902 -0.55897,-0.34546 -1.01631,0.0734 -1.01631,0.9309 0,1.75653 0.60006,2.01516 1.45729,0.62812 z m 14.88779,-3.61223 c -0.32569,-0.84872 -0.80663,-1.32866 -1.06875,-1.06653 -0.26213,0.26213 -0.17998,0.95654 0.18255,1.54313 0.98605,1.59546 1.56238,1.28551 0.8862,-0.4766 z m -21.69768,-19.12356 c -0.35609,-10.26668 -0.87243,-18.89168 -1.14742,-19.16667 -1.16415,-1.16414 -1.28439,0.91487 -0.64604,11.17005 0.37101,5.96017 0.36976,11.02506 -0.003,11.25529 -0.79608,0.49201 -1.02188,13.32279 -0.25625,14.5616 0.28771,0.46553 1.0129,0.84642 1.61152,0.84642 0.76879,0 0.89828,-5.48155 0.44096,-18.66669 z m 29.3526,17.66669 c 0,-0.55 -0.19844,-1 -0.44098,-1 -0.24254,0 -0.7191,0.45 -1.05902,1 -0.33992,0.55 -0.14148,1 0.44098,1 0.58246,0 1.05902,-0.45 1.05902,-1 z m -8.31689,-6.1875 c -0.31922,-0.79773 -0.55618,-0.56078 -0.60416,0.60417 -0.0434,1.05416 0.19292,1.64479 0.52522,1.3125 0.33229,-0.3323 0.36781,-1.1948 0.0789,-1.91667 z m -73.02083,-2.0625 c -0.27741,-0.6875 -0.50438,-0.125 -0.50438,1.25 0,1.375 0.22697,1.9375 0.50438,1.25 0.27741,-0.6875 0.27741,-1.8125 0,-2.5 z m 58.83772,0.25 c 0.33992,-0.55 0.14148,-1 -0.44098,-1 -0.58246,0 -1.05902,0.45 -1.05902,1 0,0.55 0.19844,1 0.44098,1 0.24254,0 0.7191,-0.45 1.05902,-1 z m 22.0884,-2.74494 c -1.0924,-1.0924 -1.84148,0.64486 -1.05718,2.45181 0.74368,1.71337 0.79759,1.71181 1.21194,-0.0351 0.2385,-1.00555 0.16886,-2.09305 -0.15476,-2.41667 z m -80.5884,-7.98074 c 0,-5.68973 -0.52219,-5.29967 -1.44915,1.08246 -0.48999,3.37358 -0.37643,4.65346 0.37186,4.19098 0.59251,-0.36618 1.07729,-2.73924 1.07729,-5.27344 z m 64.66228,-9.52432 c -0.27741,-0.6875 -0.50439,-0.125 -0.50439,1.25 0,1.375 0.22698,1.9375 0.50439,1.25 0.27741,-0.6875 0.27741,-1.8125 0,-2.5 z m 0.3073,-14.75 -0.66461,-6.5 -0.0891,8.5 c -0.0505,4.81482 0.23767,7.6329 0.66461,6.5 0.41454,-1.1 0.45464,-4.925 0.0891,-8.5 z m 29.87881,4.89616 c -0.89869,-0.56218 -1.46458,-0.3086 -1.69678,0.76034 -0.19162,0.88212 0.25838,1.98342 1,2.44734 0.89869,0.56218 1.46458,0.3086 1.69678,-0.76035 0.19162,-0.88211 -0.25838,-1.98341 -1,-2.44733 z m -95.49905,-0.42819 c -0.79323,-2.06711 -1.34934,-1.82352 -1.34934,0.59105 0,1.13246 0.43035,1.79304 0.95633,1.46797 0.52598,-0.32507 0.70283,-1.25163 0.39301,-2.05902 z m 96.14078,-12.96797 c -0.33036,-4.4 -0.80935,-9.0125 -1.06444,-10.25 -0.26482,-1.28474 0.0234,-2.25 0.67185,-2.25 0.72155,0 0.91099,-1.0027 0.51953,-2.75 -1.05265,-4.69864 -1.3112,-11.25 -0.44398,-11.25 0.4548,0 0.82692,-0.675 0.82692,-1.5 0,-0.825 -0.54,-1.5 -1.2,-1.5 -0.93333,0 -0.93333,-0.26667 0,-1.2 1.40453,-1.40453 1.61959,-3.17735 0.28541,-2.35279 -0.50302,0.31089 -1.14427,-5e-5 -1.42498,-0.69098 -0.28072,-0.69093 -0.49576,9.30221 -0.47788,22.20696 0.0286,20.65408 0.20465,23.22815 1.47036,21.5 1.10079,-1.50298 1.29705,-3.83855 0.83721,-9.96319 z m -95.89327,7.9984 c -0.303,-2.84193 -1.59685,-4.66245 -1.59685,-2.24685 0,1.68185 0.99375,4.74845 1.53877,4.74845 0.17864,0 0.20477,-1.12572 0.0581,-2.5016 z m 27.40315,1.5016 c 0,-0.55 -0.45,-1 -1,-1 -0.55,0 -1,0.45 -1,1 0,0.55 0.45,1 1,1 0.55,0 1,-0.45 1,-1 z m 0,-4 c 0,-0.55 -0.45,-1 -1,-1 -0.55,0 -1,0.45 -1,1 0,0.55 0.45,1 1,1 0.55,0 1,-0.45 1,-1 z m 6.68311,-4.1875 c -0.31922,-0.79773 -0.55618,-0.56078 -0.60416,0.60417 -0.0434,1.05416 0.19293,1.64479 0.52522,1.3125 0.33229,-0.3323 0.36782,-1.1948 0.079,-1.91667 z m 17.0079,-15.4679 c 0.10506,-7.96911 -0.20287,-15.46923 -0.68428,-16.66694 -0.54674,-1.36023 -0.84624,4.30636 -0.79789,15.09588 0.0426,9.50045 0.35051,17.00057 0.68429,16.66695 0.33378,-0.33363 0.69283,-7.12678 0.79788,-15.09589 z m 14.54579,5.42906 c -0.081,-10.3255 -0.20237,-11.77366 -0.9868,-11.77373 -0.4125,-4e-5 -0.67213,1.46246 -0.57697,3.25 0.0952,1.78754 0.20767,6.13757 0.25,9.66674 0.0423,3.52916 0.36632,6.12731 0.71997,5.77366 0.35366,-0.35365 0.62086,-3.46615 0.5938,-6.91667 z m -53.55369,3.03884 c -0.31922,-0.79773 -0.55618,-0.56078 -0.60416,0.60417 -0.0434,1.05416 0.19293,1.64479 0.52522,1.3125 0.33229,-0.3323 0.36782,-1.1948 0.079,-1.91667 z m 15.08378,-3.55586 c 0.0606,-2.66062 -0.30526,-5.4943 -0.81304,-6.29707 -0.61749,-0.97623 -0.92829,0.79526 -0.93854,5.34945 -0.0172,7.63607 1.57955,8.49991 1.75158,0.94762 z m 7.16859,-9.29372 c -0.004,-7.72039 -0.38753,-13.80157 -0.85326,-13.51373 -0.46574,0.28784 -0.7364,5.14202 -0.60147,10.78708 0.35567,14.88001 0.46694,16.76373 0.99023,16.76373 0.25903,0 0.46806,-6.31669 0.4645,-14.03708 z m -35.25237,10.84958 c -0.31922,-0.79773 -0.55618,-0.56078 -0.60416,0.60417 -0.0434,1.05416 0.19293,1.64479 0.52522,1.3125 0.33229,-0.3323 0.36782,-1.1948 0.079,-1.91667 z m 0,-7 c -0.31922,-0.79773 -0.55618,-0.56078 -0.60416,0.60417 -0.0434,1.05416 0.19293,1.64479 0.52522,1.3125 0.33229,-0.3323 0.36782,-1.1948 0.079,-1.91667 z m 87.31689,0.1875 c 0,-0.55 -0.19844,-1 -0.44098,-1 -0.24254,0 -0.7191,0.45 -1.05902,1 -0.33992,0.55 -0.14148,1 0.44098,1 0.58246,0 1.05902,-0.45 1.05902,-1 z m -74,-7.2 c 0,-1.61542 -0.29571,-1.90429 -1.11287,-1.08713 -0.61207,0.61207 -0.81052,1.60207 -0.44098,2.2 1.03439,1.67368 1.55385,1.30164 1.55385,-1.11287 z m 52.70578,-5.40397 c 0.0701,-2.47433 -0.22092,-3.28089 -0.92859,-2.57322 -0.85275,0.85275 -0.38413,6.17719 0.54367,6.17719 0.15552,0 0.32873,-1.62179 0.38492,-3.60397 z m -39.02267,-2.58353 c -0.31922,-0.79773 -0.55618,-0.56078 -0.60416,0.60417 -0.0434,1.05416 0.19293,1.64479 0.52522,1.3125 0.33229,-0.3323 0.36782,-1.19479 0.079,-1.91667 z m -46.68311,381.40179 c 0,-4.71686 1.42893,-5.62574 2.44981,-1.55823 0.45057,1.79521 0.1616,3.16111 -0.89159,4.21429 -1.41096,1.41096 -1.55822,1.15995 -1.55822,-2.65606 z"
       style="fill:#000000;" />
  </g>
</svg>
